solid CATIA STL
  facet normal  0.000000e+000  7.071068e-001 -7.071068e-001
    outer loop
      vertex -1.578582e+000  1.000000e+001 -7.000000e+000
      vertex -1.231665e+000  9.500000e+000 -7.500000e+000
      vertex -7.500000e+000  1.000000e+001 -7.000000e+000
    endloop
  endfacet
  facet normal  0.000000e+000  7.071067e-001 -7.071067e-001
    outer loop
      vertex -7.500000e+000  1.000000e+001 -7.000000e+000
      vertex -1.231665e+000  9.500000e+000 -7.500000e+000
      vertex -7.000000e+000  9.500000e+000 -7.500000e+000
    endloop
  endfacet
  facet normal  0.000000e+000  -0.000000e+000 -1.000000e+000
    outer loop
      vertex -1.449997e+000 -1.900000e+000 -7.500000e+000
      vertex -1.425910e+000 -1.634106e+000 -7.500000e+000
      vertex -4.708376e-010 -1.900000e+000 -7.500000e+000
    endloop
  endfacet
  facet normal  0.000000e+000  0.000000e+000 -1.000000e+000
    outer loop
      vertex -1.419837e+000  1.160310e+001 -7.500000e+000
      vertex -1.449998e+000  1.190000e+001 -7.500000e+000
      vertex -4.708358e-010  1.190000e+001 -7.500000e+000
    endloop
  endfacet
  facet normal  0.000000e+000  -0.000000e+000 -1.000000e+000
    outer loop
      vertex -1.419837e+000  1.160310e+001 -7.500000e+000
      vertex -4.708358e-010  1.190000e+001 -7.500000e+000
      vertex  1.449997e+000  1.190000e+001 -7.500000e+000
    endloop
  endfacet
  facet normal  0.000000e+000  0.000000e+000 -1.000000e+000
    outer loop
      vertex -1.419837e+000  1.160310e+001 -7.500000e+000
      vertex  1.449997e+000  1.190000e+001 -7.500000e+000
      vertex  1.425910e+000  1.163411e+001 -7.500000e+000
    endloop
  endfacet
  facet normal  0.000000e+000  0.000000e+000 -1.000000e+000
    outer loop
      vertex -1.419837e+000  1.160310e+001 -7.500000e+000
      vertex  1.425910e+000  1.163411e+001 -7.500000e+000
      vertex  1.350989e+000  1.137070e+001 -7.500000e+000
    endloop
  endfacet
  facet normal  -0.000000e+000  0.000000e+000 -1.000000e+000
    outer loop
      vertex -1.419837e+000  1.160310e+001 -7.500000e+000
      vertex  1.350989e+000  1.137070e+001 -7.500000e+000
      vertex -1.329534e+000  1.131867e+001 -7.500000e+000
    endloop
  endfacet
  facet normal  0.000000e+000  0.000000e+000 -1.000000e+000
    outer loop
      vertex  7.000000e+000  9.500000e+000 -7.500000e+000
      vertex  7.000000e+000  5.000000e-001 -7.500000e+000
      vertex  1.231665e+000  5.000000e-001 -7.500000e+000
    endloop
  endfacet
  facet normal  0.000000e+000  0.000000e+000 -1.000000e+000
    outer loop
      vertex  7.000000e+000  9.500000e+000 -7.500000e+000
      vertex  1.231665e+000  5.000000e-001 -7.500000e+000
      vertex -1.231665e+000  5.000000e-001 -7.500000e+000
    endloop
  endfacet
  facet normal  0.000000e+000  0.000000e+000 -1.000000e+000
    outer loop
      vertex  7.000000e+000  9.500000e+000 -7.500000e+000
      vertex -1.231665e+000  5.000000e-001 -7.500000e+000
      vertex -7.000000e+000  5.000000e-001 -7.500000e+000
    endloop
  endfacet
  facet normal  0.000000e+000  0.000000e+000 -1.000000e+000
    outer loop
      vertex -7.000000e+000  5.000000e-001 -7.500000e+000
      vertex -7.000000e+000  9.500000e+000 -7.500000e+000
      vertex -1.231665e+000  9.500000e+000 -7.500000e+000
    endloop
  endfacet
  facet normal  0.000000e+000  -0.000000e+000 -1.000000e+000
    outer loop
      vertex -7.000000e+000  5.000000e-001 -7.500000e+000
      vertex -1.231665e+000  9.500000e+000 -7.500000e+000
      vertex  1.231665e+000  9.500000e+000 -7.500000e+000
    endloop
  endfacet
  facet normal  0.000000e+000  -0.000000e+000 -1.000000e+000
    outer loop
      vertex -7.000000e+000  5.000000e-001 -7.500000e+000
      vertex  1.231665e+000  9.500000e+000 -7.500000e+000
      vertex  7.000000e+000  9.500000e+000 -7.500000e+000
    endloop
  endfacet
  facet normal  0.000000e+000  0.000000e+000 -1.000000e+000
    outer loop
      vertex -1.329534e+000  1.131867e+001 -7.500000e+000
      vertex  1.350989e+000  1.137070e+001 -7.500000e+000
      vertex -1.182915e+000  1.105874e+001 -7.500000e+000
    endloop
  endfacet
  facet normal  0.000000e+000  0.000000e+000 -9.999999e-001
    outer loop
      vertex -1.182915e+000  1.105874e+001 -7.500000e+000
      vertex  1.350989e+000  1.137070e+001 -7.500000e+000
      vertex  1.227881e+000  1.112608e+001 -7.500000e+000
    endloop
  endfacet
  facet normal  0.000000e+000  0.000000e+000 -1.000000e+000
    outer loop
      vertex -1.182915e+000  1.105874e+001 -7.500000e+000
      vertex  1.227881e+000  1.112608e+001 -7.500000e+000
      vertex -1.187948e+000  1.104527e+001 -7.500000e+000
    endloop
  endfacet
  facet normal  0.000000e+000  0.000000e+000 -1.000000e+000
    outer loop
      vertex -1.187948e+000  1.104527e+001 -7.500000e+000
      vertex  1.227881e+000  1.112608e+001 -7.500000e+000
      vertex  1.060976e+000  1.090897e+001 -7.500000e+000
    endloop
  endfacet
  facet normal  -0.000000e+000  0.000000e+000 -1.000000e+000
    outer loop
      vertex -1.187948e+000  1.104527e+001 -7.500000e+000
      vertex  1.060976e+000  1.090897e+001 -7.500000e+000
      vertex -8.070005e-001  1.063633e+001 -7.500000e+000
    endloop
  endfacet
  facet normal  0.000000e+000  0.000000e+000 -1.000000e+000
    outer loop
      vertex -8.070005e-001  1.063633e+001 -7.500000e+000
      vertex  1.060976e+000  1.090897e+001 -7.500000e+000
      vertex  8.070005e-001  1.063633e+001 -7.500000e+000
    endloop
  endfacet
  facet normal  -0.000000e+000  0.000000e+000 -9.999999e-001
    outer loop
      vertex -8.070005e-001  1.063633e+001 -7.500000e+000
      vertex  8.070005e-001  1.063633e+001 -7.500000e+000
      vertex -1.231665e+000  9.500000e+000 -7.500000e+000
    endloop
  endfacet
  facet normal  0.000000e+000  0.000000e+000 -1.000000e+000
    outer loop
      vertex -1.231665e+000  9.500000e+000 -7.500000e+000
      vertex  8.070005e-001  1.063633e+001 -7.500000e+000
      vertex  1.231665e+000  9.500000e+000 -7.500000e+000
    endloop
  endfacet
  facet normal  -0.000000e+000  0.000000e+000 -1.000000e+000
    outer loop
      vertex -1.231665e+000  5.000000e-001 -7.500000e+000
      vertex  1.231665e+000  5.000000e-001 -7.500000e+000
      vertex -8.070005e-001 -6.363330e-001 -7.500000e+000
    endloop
  endfacet
  facet normal  0.000000e+000  0.000000e+000 -1.000000e+000
    outer loop
      vertex -8.070005e-001 -6.363330e-001 -7.500000e+000
      vertex  1.231665e+000  5.000000e-001 -7.500000e+000
      vertex  8.070005e-001 -6.363330e-001 -7.500000e+000
    endloop
  endfacet
  facet normal  -0.000000e+000  0.000000e+000 -1.000000e+000
    outer loop
      vertex -8.070005e-001 -6.363330e-001 -7.500000e+000
      vertex  8.070005e-001 -6.363330e-001 -7.500000e+000
      vertex -1.060976e+000 -9.089714e-001 -7.500000e+000
    endloop
  endfacet
  facet normal  0.000000e+000  0.000000e+000 -1.000000e+000
    outer loop
      vertex -1.060976e+000 -9.089714e-001 -7.500000e+000
      vertex  8.070005e-001 -6.363330e-001 -7.500000e+000
      vertex  1.187948e+000 -1.045274e+000 -7.500000e+000
    endloop
  endfacet
  facet normal  -0.000000e+000  0.000000e+000 -1.000000e+000
    outer loop
      vertex -1.060976e+000 -9.089714e-001 -7.500000e+000
      vertex  1.187948e+000 -1.045274e+000 -7.500000e+000
      vertex -1.227881e+000 -1.126082e+000 -7.500000e+000
    endloop
  endfacet
  facet normal  0.000000e+000  0.000000e+000 -1.000000e+000
    outer loop
      vertex -1.227881e+000 -1.126082e+000 -7.500000e+000
      vertex  1.187948e+000 -1.045274e+000 -7.500000e+000
      vertex  1.182915e+000 -1.058742e+000 -7.500000e+000
    endloop
  endfacet
  facet normal  0.000000e+000  0.000000e+000 -1.000000e+000
    outer loop
      vertex -1.227881e+000 -1.126082e+000 -7.500000e+000
      vertex  1.182915e+000 -1.058742e+000 -7.500000e+000
      vertex -1.350989e+000 -1.370702e+000 -7.500000e+000
    endloop
  endfacet
  facet normal  0.000000e+000  0.000000e+000 -1.000000e+000
    outer loop
      vertex -1.350989e+000 -1.370702e+000 -7.500000e+000
      vertex  1.182915e+000 -1.058742e+000 -7.500000e+000
      vertex  1.329534e+000 -1.318666e+000 -7.500000e+000
    endloop
  endfacet
  facet normal  0.000000e+000  0.000000e+000 -9.999999e-001
    outer loop
      vertex -1.350989e+000 -1.370702e+000 -7.500000e+000
      vertex  1.329534e+000 -1.318666e+000 -7.500000e+000
      vertex -1.425910e+000 -1.634106e+000 -7.500000e+000
    endloop
  endfacet
  facet normal  0.000000e+000  0.000000e+000 -9.999999e-001
    outer loop
      vertex -1.425910e+000 -1.634106e+000 -7.500000e+000
      vertex  1.329534e+000 -1.318666e+000 -7.500000e+000
      vertex  1.419837e+000 -1.603102e+000 -7.500000e+000
    endloop
  endfacet
  facet normal  0.000000e+000  0.000000e+000 -1.000000e+000
    outer loop
      vertex -1.425910e+000 -1.634106e+000 -7.500000e+000
      vertex  1.419837e+000 -1.603102e+000 -7.500000e+000
      vertex -4.708376e-010 -1.900000e+000 -7.500000e+000
    endloop
  endfacet
  facet normal  0.000000e+000  0.000000e+000 -9.999999e-001
    outer loop
      vertex -4.708376e-010 -1.900000e+000 -7.500000e+000
      vertex  1.419837e+000 -1.603102e+000 -7.500000e+000
      vertex  1.449998e+000 -1.900000e+000 -7.500000e+000
    endloop
  endfacet
  facet normal -1.000000e+000  0.000000e+000  0.000000e+000
    outer loop
      vertex -7.500000e+000  1.000000e+001 -7.000000e+000
      vertex -7.500000e+000  0.000000e+000 -7.000000e+000
      vertex -7.500000e+000  1.000000e+001  7.000000e+000
    endloop
  endfacet
  facet normal -1.000000e+000  -0.000000e+000  0.000000e+000
    outer loop
      vertex -7.500000e+000  1.000000e+001  7.000000e+000
      vertex -7.500000e+000  0.000000e+000 -7.000000e+000
      vertex -7.500000e+000  0.000000e+000  7.000000e+000
    endloop
  endfacet
  facet normal  0.000000e+000 -7.071068e-001 -7.071068e-001
    outer loop
      vertex -7.500000e+000  0.000000e+000 -7.000000e+000
      vertex -7.000000e+000  5.000000e-001 -7.500000e+000
      vertex -1.578582e+000  0.000000e+000 -7.000000e+000
    endloop
  endfacet
  facet normal  0.000000e+000 -7.071067e-001 -7.071067e-001
    outer loop
      vertex -1.578582e+000  0.000000e+000 -7.000000e+000
      vertex -7.000000e+000  5.000000e-001 -7.500000e+000
      vertex -1.231665e+000  5.000000e-001 -7.500000e+000
    endloop
  endfacet
  facet normal -7.071068e-001  0.000000e+000 -7.071068e-001
    outer loop
      vertex -7.500000e+000  1.000000e+001 -7.000000e+000
      vertex -7.000000e+000  9.500000e+000 -7.500000e+000
      vertex -7.500000e+000  0.000000e+000 -7.000000e+000
    endloop
  endfacet
  facet normal -7.071067e-001  0.000000e+000 -7.071067e-001
    outer loop
      vertex -7.500000e+000  0.000000e+000 -7.000000e+000
      vertex -7.000000e+000  9.500000e+000 -7.500000e+000
      vertex -7.000000e+000  5.000000e-001 -7.500000e+000
    endloop
  endfacet
  facet normal  0.000000e+000  1.000000e+000  0.000000e+000
    outer loop
      vertex -1.578582e+000  1.000000e+001 -7.000000e+000
      vertex -7.500000e+000  1.000000e+001 -7.000000e+000
      vertex -1.578582e+000  1.000000e+001  7.000000e+000
    endloop
  endfacet
  facet normal  0.000000e+000  1.000000e+000  0.000000e+000
    outer loop
      vertex -1.578582e+000  1.000000e+001  7.000000e+000
      vertex -7.500000e+000  1.000000e+001 -7.000000e+000
      vertex -7.500000e+000  1.000000e+001  7.000000e+000
    endloop
  endfacet
  facet normal -6.623644e-001  2.475352e-001 -7.071066e-001
    outer loop
      vertex -1.383596e+000  1.052175e+001 -7.000000e+000
      vertex -8.070005e-001  1.063633e+001 -7.500000e+000
      vertex -1.578582e+000  1.000000e+001 -7.000000e+000
    endloop
  endfacet
  facet normal -6.623643e-001  2.475350e-001 -7.071067e-001
    outer loop
      vertex -1.578582e+000  1.000000e+001 -7.000000e+000
      vertex -8.070005e-001  1.063633e+001 -7.500000e+000
      vertex -1.231665e+000  9.500000e+000 -7.500000e+000
    endloop
  endfacet
  facet normal -9.367244e-001  3.500676e-001  0.000000e+000
    outer loop
      vertex -1.383596e+000  1.052175e+001 -7.000000e+000
      vertex -1.578582e+000  1.000000e+001 -7.000000e+000
      vertex -1.383596e+000  1.052175e+001  7.000000e+000
    endloop
  endfacet
  facet normal -9.367244e-001  3.500676e-001  0.000000e+000
    outer loop
      vertex -1.383596e+000  1.052175e+001  7.000000e+000
      vertex -1.578582e+000  1.000000e+001 -7.000000e+000
      vertex -1.578582e+000  1.000000e+001  7.000000e+000
    endloop
  endfacet
  facet normal -9.367211e-001  3.500764e-001  1.045674e-005
    outer loop
      vertex -1.333900e+000  1.065473e+001 -7.127003e+000
      vertex -1.182915e+000  1.105874e+001 -7.500000e+000
      vertex -1.187948e+000  1.104527e+001 -7.500000e+000
    endloop
  endfacet
  facet normal -5.173961e-001 -4.819748e-001 -7.071079e-001
    outer loop
      vertex -8.070005e-001  1.063633e+001 -7.500000e+000
      vertex -1.383596e+000  1.052175e+001 -7.000000e+000
      vertex -1.333900e+000  1.065473e+001 -7.127003e+000
    endloop
  endfacet
  facet normal -5.173953e-001 -4.819774e-001 -7.071067e-001
    outer loop
      vertex -8.070005e-001  1.063633e+001 -7.500000e+000
      vertex -1.333900e+000  1.065473e+001 -7.127003e+000
      vertex -1.187948e+000  1.104527e+001 -7.500000e+000
    endloop
  endfacet
  facet normal -5.173969e-001 -4.819743e-001 -7.071077e-001
    outer loop
      vertex -1.333900e+000  1.065473e+001 -7.127003e+000
      vertex -1.383596e+000  1.052175e+001 -7.000000e+000
      vertex -1.426829e+000  1.056816e+001 -7.000000e+000
    endloop
  endfacet
  facet normal -6.921014e-001 -1.727630e-001 -7.008200e-001
    outer loop
      vertex -1.419837e+000  1.160310e+001 -7.500000e+000
      vertex -1.834640e+000  1.123657e+001 -7.000000e+000
      vertex -1.929943e+000  1.161835e+001 -7.000000e+000
    endloop
  endfacet
  facet normal -6.434687e-001 -3.082650e-001 -7.006574e-001
    outer loop
      vertex -1.329534e+000  1.131867e+001 -7.500000e+000
      vertex -1.664628e+000  1.088168e+001 -7.000000e+000
      vertex -1.834640e+000  1.123657e+001 -7.000000e+000
    endloop
  endfacet
  facet normal -6.697448e-001 -2.126305e-001 -7.114986e-001
    outer loop
      vertex -1.329534e+000  1.131867e+001 -7.500000e+000
      vertex -1.834640e+000  1.123657e+001 -7.000000e+000
      vertex -1.419837e+000  1.160310e+001 -7.500000e+000
    endloop
  endfacet
  facet normal -7.095879e-001  1.142647e-001 -6.952903e-001
    outer loop
      vertex -1.884094e+000  1.240000e+001 -7.000000e+000
      vertex -1.651047e+000  1.211539e+001 -7.284613e+000
      vertex -1.946654e+000  1.201150e+001 -7.000000e+000
    endloop
  endfacet
  facet normal -6.993112e-001 -7.104050e-002 -7.112784e-001
    outer loop
      vertex -1.449998e+000  1.190000e+001 -7.500000e+000
      vertex -1.419837e+000  1.160310e+001 -7.500000e+000
      vertex -1.929943e+000  1.161835e+001 -7.000000e+000
    endloop
  endfacet
  facet normal -7.125183e-001 -3.028693e-002 -7.009996e-001
    outer loop
      vertex -1.449998e+000  1.190000e+001 -7.500000e+000
      vertex -1.929943e+000  1.161835e+001 -7.000000e+000
      vertex -1.946654e+000  1.201150e+001 -7.000000e+000
    endloop
  endfacet
  facet normal -7.023736e-001  5.412802e-002 -7.097476e-001
    outer loop
      vertex -1.449998e+000  1.190000e+001 -7.500000e+000
      vertex -1.946654e+000  1.201150e+001 -7.000000e+000
      vertex -1.651047e+000  1.211539e+001 -7.284613e+000
    endloop
  endfacet
  facet normal -5.489502e-001 -4.469491e-001 -7.063216e-001
    outer loop
      vertex -1.333900e+000  1.065473e+001 -7.127003e+000
      vertex -1.426829e+000  1.056816e+001 -7.000000e+000
      vertex -1.182915e+000  1.105874e+001 -7.500000e+000
    endloop
  endfacet
  facet normal -5.685912e-001 -4.312623e-001 -7.005119e-001
    outer loop
      vertex -1.182915e+000  1.105874e+001 -7.500000e+000
      vertex -1.426829e+000  1.056816e+001 -7.000000e+000
      vertex -1.664628e+000  1.088168e+001 -7.000000e+000
    endloop
  endfacet
  facet normal -6.118563e-001 -3.451377e-001 -7.116966e-001
    outer loop
      vertex -1.182915e+000  1.105874e+001 -7.500000e+000
      vertex -1.664628e+000  1.088168e+001 -7.000000e+000
      vertex -1.329534e+000  1.131867e+001 -7.500000e+000
    endloop
  endfacet
  facet normal  0.000000e+000  1.000000e+000  0.000000e+000
    outer loop
      vertex -4.708351e-010  1.240000e+001 -7.000000e+000
      vertex -1.884094e+000  1.240000e+001 -7.000000e+000
      vertex -4.708351e-010  1.240000e+001  7.000000e+000
    endloop
  endfacet
  facet normal  0.000000e+000  1.000000e+000  0.000000e+000
    outer loop
      vertex -4.708351e-010  1.240000e+001  7.000000e+000
      vertex -1.884094e+000  1.240000e+001 -7.000000e+000
      vertex -1.884094e+000  1.240000e+001  7.000000e+000
    endloop
  endfacet
  facet normal  6.414565e-001 -3.073010e-001 -7.029223e-001
    outer loop
      vertex  1.350989e+000  1.137070e+001 -7.500000e+000
      vertex  1.834640e+000  1.123657e+001 -7.000000e+000
      vertex  1.664628e+000  1.088168e+001 -7.000000e+000
    endloop
  endfacet
  facet normal  6.909837e-001 -1.724840e-001 -7.019906e-001
    outer loop
      vertex  1.425910e+000  1.163411e+001 -7.500000e+000
      vertex  1.929943e+000  1.161835e+001 -7.000000e+000
      vertex  1.834640e+000  1.123657e+001 -7.000000e+000
    endloop
  endfacet
  facet normal  6.788416e-001 -1.930841e-001 -7.084437e-001
    outer loop
      vertex  1.425910e+000  1.163411e+001 -7.500000e+000
      vertex  1.834640e+000  1.123657e+001 -7.000000e+000
      vertex  1.350989e+000  1.137070e+001 -7.500000e+000
    endloop
  endfacet
  facet normal  7.095873e-001  1.142646e-001 -6.952909e-001
    outer loop
      vertex  1.884094e+000  1.240000e+001 -7.000000e+000
      vertex  1.946654e+000  1.201150e+001 -7.000000e+000
      vertex  1.651047e+000  1.211539e+001 -7.284613e+000
    endloop
  endfacet
  facet normal  7.023730e-001  5.412827e-002 -7.097480e-001
    outer loop
      vertex  1.449997e+000  1.190000e+001 -7.500000e+000
      vertex  1.651047e+000  1.211539e+001 -7.284613e+000
      vertex  1.946654e+000  1.201150e+001 -7.000000e+000
    endloop
  endfacet
  facet normal  7.125177e-001 -3.028691e-002 -7.010001e-001
    outer loop
      vertex  1.449997e+000  1.190000e+001 -7.500000e+000
      vertex  1.946654e+000  1.201150e+001 -7.000000e+000
      vertex  1.929943e+000  1.161835e+001 -7.000000e+000
    endloop
  endfacet
  facet normal  7.018341e-001 -6.357814e-002 -7.094976e-001
    outer loop
      vertex  1.449997e+000  1.190000e+001 -7.500000e+000
      vertex  1.929943e+000  1.161835e+001 -7.000000e+000
      vertex  1.425910e+000  1.163411e+001 -7.500000e+000
    endloop
  endfacet
  facet normal  5.648245e-001 -4.284054e-001 -7.052957e-001
    outer loop
      vertex  1.426829e+000  1.056816e+001 -7.000000e+000
      vertex  1.060976e+000  1.090897e+001 -7.500000e+000
      vertex  1.664628e+000  1.088168e+001 -7.000000e+000
    endloop
  endfacet
  facet normal  5.632895e-001 -4.330336e-001 -7.036951e-001
    outer loop
      vertex  1.664628e+000  1.088168e+001 -7.000000e+000
      vertex  1.060976e+000  1.090897e+001 -7.500000e+000
      vertex  1.227881e+000  1.112608e+001 -7.500000e+000
    endloop
  endfacet
  facet normal  6.316314e-001 -3.178777e-001 -7.071036e-001
    outer loop
      vertex  1.664628e+000  1.088168e+001 -7.000000e+000
      vertex  1.227881e+000  1.112608e+001 -7.500000e+000
      vertex  1.350989e+000  1.137070e+001 -7.500000e+000
    endloop
  endfacet
  facet normal  0.000000e+000  1.000000e+000  0.000000e+000
    outer loop
      vertex  1.884094e+000  1.240000e+001 -7.000000e+000
      vertex -4.708351e-010  1.240000e+001 -7.000000e+000
      vertex  1.884094e+000  1.240000e+001  7.000000e+000
    endloop
  endfacet
  facet normal  0.000000e+000  1.000000e+000  0.000000e+000
    outer loop
      vertex  1.884094e+000  1.240000e+001  7.000000e+000
      vertex -4.708351e-010  1.240000e+001 -7.000000e+000
      vertex -4.708351e-010  1.240000e+001  7.000000e+000
    endloop
  endfacet
  facet normal  0.000000e+000  7.071067e-001 -7.071067e-001
    outer loop
      vertex -4.708358e-010  1.190000e+001 -7.500000e+000
      vertex -4.708351e-010  1.240000e+001 -7.000000e+000
      vertex  1.449997e+000  1.190000e+001 -7.500000e+000
    endloop
  endfacet
  facet normal  0.000000e+000  7.071068e-001 -7.071068e-001
    outer loop
      vertex  1.449997e+000  1.190000e+001 -7.500000e+000
      vertex -4.708351e-010  1.240000e+001 -7.000000e+000
      vertex  1.884094e+000  1.240000e+001 -7.000000e+000
    endloop
  endfacet
  facet normal -2.399536e-005  7.071172e-001 -7.070964e-001
    outer loop
      vertex  1.449997e+000  1.190000e+001 -7.500000e+000
      vertex  1.884094e+000  1.240000e+001 -7.000000e+000
      vertex  1.651047e+000  1.211539e+001 -7.284613e+000
    endloop
  endfacet
  facet normal  0.000000e+000  7.071068e-001 -7.071068e-001
    outer loop
      vertex -4.708351e-010  1.240000e+001 -7.000000e+000
      vertex -4.708358e-010  1.190000e+001 -7.500000e+000
      vertex -1.884094e+000  1.240000e+001 -7.000000e+000
    endloop
  endfacet
  facet normal  0.000000e+000  7.071068e-001 -7.071068e-001
    outer loop
      vertex -1.884094e+000  1.240000e+001 -7.000000e+000
      vertex -4.708358e-010  1.190000e+001 -7.500000e+000
      vertex -1.449998e+000  1.190000e+001 -7.500000e+000
    endloop
  endfacet
  facet normal  2.399524e-005  7.071172e-001 -7.070964e-001
    outer loop
      vertex -1.884094e+000  1.240000e+001 -7.000000e+000
      vertex -1.449998e+000  1.190000e+001 -7.500000e+000
      vertex -1.651047e+000  1.211539e+001 -7.284613e+000
    endloop
  endfacet
  facet normal -7.317106e-001 -6.816155e-001  0.000000e+000
    outer loop
      vertex -1.426829e+000  1.056816e+001 -7.000000e+000
      vertex -1.383596e+000  1.052175e+001 -7.000000e+000
      vertex -1.426829e+000  1.056816e+001  7.000000e+000
    endloop
  endfacet
  facet normal -7.317106e-001 -6.816155e-001  0.000000e+000
    outer loop
      vertex -1.426829e+000  1.056816e+001  7.000000e+000
      vertex -1.383596e+000  1.052175e+001 -7.000000e+000
      vertex -1.383596e+000  1.052175e+001  7.000000e+000
    endloop
  endfacet
  facet normal -7.967471e-001 -6.043129e-001  -0.000000e+000
    outer loop
      vertex -1.426829e+000  1.056816e+001 -7.000000e+000
      vertex -1.426829e+000  1.056816e+001  7.000000e+000
      vertex -1.664628e+000  1.088168e+001 -7.000000e+000
    endloop
  endfacet
  facet normal -7.967471e-001 -6.043129e-001  0.000000e+000
    outer loop
      vertex -1.664628e+000  1.088168e+001 -7.000000e+000
      vertex -1.426829e+000  1.056816e+001  7.000000e+000
      vertex -1.664628e+000  1.088168e+001  7.000000e+000
    endloop
  endfacet
  facet normal -9.018509e-001 -4.320475e-001  -0.000000e+000
    outer loop
      vertex -1.664628e+000  1.088168e+001 -7.000000e+000
      vertex -1.664628e+000  1.088168e+001  7.000000e+000
      vertex -1.834640e+000  1.123657e+001 -7.000000e+000
    endloop
  endfacet
  facet normal -9.018509e-001 -4.320475e-001  0.000000e+000
    outer loop
      vertex -1.834640e+000  1.123657e+001 -7.000000e+000
      vertex -1.664628e+000  1.088168e+001  7.000000e+000
      vertex -1.834640e+000  1.123657e+001  7.000000e+000
    endloop
  endfacet
  facet normal -9.702290e-001 -2.421895e-001  -0.000000e+000
    outer loop
      vertex -1.834640e+000  1.123657e+001 -7.000000e+000
      vertex -1.834640e+000  1.123657e+001  7.000000e+000
      vertex -1.929943e+000  1.161835e+001 -7.000000e+000
    endloop
  endfacet
  facet normal -9.702290e-001 -2.421895e-001  0.000000e+000
    outer loop
      vertex -1.929943e+000  1.161835e+001 -7.000000e+000
      vertex -1.834640e+000  1.123657e+001  7.000000e+000
      vertex -1.929943e+000  1.161835e+001  7.000000e+000
    endloop
  endfacet
  facet normal -9.990978e-001 -4.246853e-002  -0.000000e+000
    outer loop
      vertex -1.929943e+000  1.161835e+001 -7.000000e+000
      vertex -1.929943e+000  1.161835e+001  7.000000e+000
      vertex -1.946654e+000  1.201150e+001 -7.000000e+000
    endloop
  endfacet
  facet normal -9.990978e-001 -4.246853e-002  0.000000e+000
    outer loop
      vertex -1.946654e+000  1.201150e+001 -7.000000e+000
      vertex -1.929943e+000  1.161835e+001  7.000000e+000
      vertex -1.946654e+000  1.201150e+001  7.000000e+000
    endloop
  endfacet
  facet normal -9.872815e-001  1.589815e-001  0.000000e+000
    outer loop
      vertex -1.946654e+000  1.201150e+001 -7.000000e+000
      vertex -1.946654e+000  1.201150e+001  7.000000e+000
      vertex -1.884094e+000  1.240000e+001 -7.000000e+000
    endloop
  endfacet
  facet normal -9.872815e-001  1.589815e-001  0.000000e+000
    outer loop
      vertex -1.884094e+000  1.240000e+001 -7.000000e+000
      vertex -1.946654e+000  1.201150e+001  7.000000e+000
      vertex -1.884094e+000  1.240000e+001  7.000000e+000
    endloop
  endfacet
  facet normal  7.317106e-001 -6.816155e-001  0.000000e+000
    outer loop
      vertex  1.383596e+000  1.052175e+001 -7.000000e+000
      vertex  1.426829e+000  1.056816e+001 -7.000000e+000
      vertex  1.383596e+000  1.052175e+001  7.000000e+000
    endloop
  endfacet
  facet normal  7.317106e-001 -6.816155e-001  0.000000e+000
    outer loop
      vertex  1.383596e+000  1.052175e+001  7.000000e+000
      vertex  1.426829e+000  1.056816e+001 -7.000000e+000
      vertex  1.426829e+000  1.056816e+001  7.000000e+000
    endloop
  endfacet
  facet normal  9.872815e-001  1.589815e-001  0.000000e+000
    outer loop
      vertex  1.884094e+000  1.240000e+001 -7.000000e+000
      vertex  1.884094e+000  1.240000e+001  7.000000e+000
      vertex  1.946654e+000  1.201150e+001 -7.000000e+000
    endloop
  endfacet
  facet normal  9.872815e-001  1.589815e-001  -0.000000e+000
    outer loop
      vertex  1.946654e+000  1.201150e+001 -7.000000e+000
      vertex  1.884094e+000  1.240000e+001  7.000000e+000
      vertex  1.946654e+000  1.201150e+001  7.000000e+000
    endloop
  endfacet
  facet normal  9.990978e-001 -4.246853e-002  0.000000e+000
    outer loop
      vertex  1.946654e+000  1.201150e+001 -7.000000e+000
      vertex  1.946654e+000  1.201150e+001  7.000000e+000
      vertex  1.929943e+000  1.161835e+001 -7.000000e+000
    endloop
  endfacet
  facet normal  9.990978e-001 -4.246853e-002  0.000000e+000
    outer loop
      vertex  1.929943e+000  1.161835e+001 -7.000000e+000
      vertex  1.946654e+000  1.201150e+001  7.000000e+000
      vertex  1.929943e+000  1.161835e+001  7.000000e+000
    endloop
  endfacet
  facet normal  9.702290e-001 -2.421895e-001  0.000000e+000
    outer loop
      vertex  1.929943e+000  1.161835e+001 -7.000000e+000
      vertex  1.929943e+000  1.161835e+001  7.000000e+000
      vertex  1.834640e+000  1.123657e+001 -7.000000e+000
    endloop
  endfacet
  facet normal  9.702290e-001 -2.421895e-001  0.000000e+000
    outer loop
      vertex  1.834640e+000  1.123657e+001 -7.000000e+000
      vertex  1.929943e+000  1.161835e+001  7.000000e+000
      vertex  1.834640e+000  1.123657e+001  7.000000e+000
    endloop
  endfacet
  facet normal  9.018509e-001 -4.320475e-001  0.000000e+000
    outer loop
      vertex  1.834640e+000  1.123657e+001 -7.000000e+000
      vertex  1.834640e+000  1.123657e+001  7.000000e+000
      vertex  1.664628e+000  1.088168e+001 -7.000000e+000
    endloop
  endfacet
  facet normal  9.018509e-001 -4.320475e-001  0.000000e+000
    outer loop
      vertex  1.664628e+000  1.088168e+001 -7.000000e+000
      vertex  1.834640e+000  1.123657e+001  7.000000e+000
      vertex  1.664628e+000  1.088168e+001  7.000000e+000
    endloop
  endfacet
  facet normal  7.967471e-001 -6.043129e-001  0.000000e+000
    outer loop
      vertex  1.664628e+000  1.088168e+001 -7.000000e+000
      vertex  1.664628e+000  1.088168e+001  7.000000e+000
      vertex  1.426829e+000  1.056816e+001 -7.000000e+000
    endloop
  endfacet
  facet normal  7.967471e-001 -6.043129e-001  0.000000e+000
    outer loop
      vertex  1.426829e+000  1.056816e+001 -7.000000e+000
      vertex  1.664628e+000  1.088168e+001  7.000000e+000
      vertex  1.426829e+000  1.056816e+001  7.000000e+000
    endloop
  endfacet
  facet normal  6.623644e-001  2.475350e-001 -7.071066e-001
    outer loop
      vertex  8.070005e-001  1.063633e+001 -7.500000e+000
      vertex  1.383596e+000  1.052175e+001 -7.000000e+000
      vertex  1.231665e+000  9.500000e+000 -7.500000e+000
    endloop
  endfacet
  facet normal  6.623642e-001  2.475352e-001 -7.071068e-001
    outer loop
      vertex  1.231665e+000  9.500000e+000 -7.500000e+000
      vertex  1.383596e+000  1.052175e+001 -7.000000e+000
      vertex  1.578582e+000  1.000000e+001 -7.000000e+000
    endloop
  endfacet
  facet normal  5.173951e-001 -4.819773e-001 -7.071070e-001
    outer loop
      vertex  1.060976e+000  1.090897e+001 -7.500000e+000
      vertex  1.426829e+000  1.056816e+001 -7.000000e+000
      vertex  8.070005e-001  1.063633e+001 -7.500000e+000
    endloop
  endfacet
  facet normal  5.173965e-001 -4.819739e-001 -7.071081e-001
    outer loop
      vertex  8.070005e-001  1.063633e+001 -7.500000e+000
      vertex  1.426829e+000  1.056816e+001 -7.000000e+000
      vertex  1.383596e+000  1.052175e+001 -7.000000e+000
    endloop
  endfacet
  facet normal  9.367244e-001  3.500676e-001  0.000000e+000
    outer loop
      vertex  1.578582e+000  1.000000e+001 -7.000000e+000
      vertex  1.383596e+000  1.052175e+001 -7.000000e+000
      vertex  1.578582e+000  1.000000e+001  7.000000e+000
    endloop
  endfacet
  facet normal  9.367244e-001  3.500676e-001  0.000000e+000
    outer loop
      vertex  1.578582e+000  1.000000e+001  7.000000e+000
      vertex  1.383596e+000  1.052175e+001 -7.000000e+000
      vertex  1.383596e+000  1.052175e+001  7.000000e+000
    endloop
  endfacet
  facet normal  0.000000e+000  7.071068e-001 -7.071068e-001
    outer loop
      vertex  7.500000e+000  1.000000e+001 -7.000000e+000
      vertex  7.000000e+000  9.500000e+000 -7.500000e+000
      vertex  1.578582e+000  1.000000e+001 -7.000000e+000
    endloop
  endfacet
  facet normal  0.000000e+000  7.071067e-001 -7.071067e-001
    outer loop
      vertex  1.578582e+000  1.000000e+001 -7.000000e+000
      vertex  7.000000e+000  9.500000e+000 -7.500000e+000
      vertex  1.231665e+000  9.500000e+000 -7.500000e+000
    endloop
  endfacet
  facet normal  1.000000e+000  0.000000e+000  0.000000e+000
    outer loop
      vertex  7.500000e+000  0.000000e+000 -7.000000e+000
      vertex  7.500000e+000  1.000000e+001 -7.000000e+000
      vertex  7.500000e+000  0.000000e+000  7.000000e+000
    endloop
  endfacet
  facet normal  1.000000e+000  -0.000000e+000  0.000000e+000
    outer loop
      vertex  7.500000e+000  0.000000e+000  7.000000e+000
      vertex  7.500000e+000  1.000000e+001 -7.000000e+000
      vertex  7.500000e+000  1.000000e+001  7.000000e+000
    endloop
  endfacet
  facet normal  0.000000e+000 -7.071068e-001 -7.071068e-001
    outer loop
      vertex  1.578582e+000  0.000000e+000 -7.000000e+000
      vertex  1.231665e+000  5.000000e-001 -7.500000e+000
      vertex  7.500000e+000  0.000000e+000 -7.000000e+000
    endloop
  endfacet
  facet normal  0.000000e+000 -7.071067e-001 -7.071067e-001
    outer loop
      vertex  7.500000e+000  0.000000e+000 -7.000000e+000
      vertex  1.231665e+000  5.000000e-001 -7.500000e+000
      vertex  7.000000e+000  5.000000e-001 -7.500000e+000
    endloop
  endfacet
  facet normal  7.071068e-001  0.000000e+000 -7.071068e-001
    outer loop
      vertex  7.500000e+000  0.000000e+000 -7.000000e+000
      vertex  7.000000e+000  5.000000e-001 -7.500000e+000
      vertex  7.500000e+000  1.000000e+001 -7.000000e+000
    endloop
  endfacet
  facet normal  7.071067e-001  0.000000e+000 -7.071067e-001
    outer loop
      vertex  7.500000e+000  1.000000e+001 -7.000000e+000
      vertex  7.000000e+000  5.000000e-001 -7.500000e+000
      vertex  7.000000e+000  9.500000e+000 -7.500000e+000
    endloop
  endfacet
  facet normal  0.000000e+000  1.000000e+000  0.000000e+000
    outer loop
      vertex  7.500000e+000  1.000000e+001 -7.000000e+000
      vertex  1.578582e+000  1.000000e+001 -7.000000e+000
      vertex  7.500000e+000  1.000000e+001  7.000000e+000
    endloop
  endfacet
  facet normal  0.000000e+000  1.000000e+000  0.000000e+000
    outer loop
      vertex  7.500000e+000  1.000000e+001  7.000000e+000
      vertex  1.578582e+000  1.000000e+001 -7.000000e+000
      vertex  1.578582e+000  1.000000e+001  7.000000e+000
    endloop
  endfacet
  facet normal  0.000000e+000 -1.000000e+000  0.000000e+000
    outer loop
      vertex  1.578582e+000  0.000000e+000 -7.000000e+000
      vertex  7.500000e+000  0.000000e+000 -7.000000e+000
      vertex  1.578582e+000  0.000000e+000  7.000000e+000
    endloop
  endfacet
  facet normal  0.000000e+000 -1.000000e+000  0.000000e+000
    outer loop
      vertex  1.578582e+000  0.000000e+000  7.000000e+000
      vertex  7.500000e+000  0.000000e+000 -7.000000e+000
      vertex  7.500000e+000  0.000000e+000  7.000000e+000
    endloop
  endfacet
  facet normal  6.623642e-001 -2.475350e-001 -7.071068e-001
    outer loop
      vertex  1.383596e+000 -5.217517e-001 -7.000000e+000
      vertex  8.070005e-001 -6.363330e-001 -7.500000e+000
      vertex  1.578582e+000  0.000000e+000 -7.000000e+000
    endloop
  endfacet
  facet normal  6.623642e-001 -2.475351e-001 -7.071067e-001
    outer loop
      vertex  1.578582e+000  0.000000e+000 -7.000000e+000
      vertex  8.070005e-001 -6.363330e-001 -7.500000e+000
      vertex  1.231665e+000  5.000000e-001 -7.500000e+000
    endloop
  endfacet
  facet normal  9.367244e-001 -3.500674e-001  0.000000e+000
    outer loop
      vertex  1.383596e+000 -5.217517e-001 -7.000000e+000
      vertex  1.578582e+000  0.000000e+000 -7.000000e+000
      vertex  1.383596e+000 -5.217517e-001  7.000000e+000
    endloop
  endfacet
  facet normal  9.367244e-001 -3.500674e-001  0.000000e+000
    outer loop
      vertex  1.383596e+000 -5.217517e-001  7.000000e+000
      vertex  1.578582e+000  0.000000e+000 -7.000000e+000
      vertex  1.578582e+000  0.000000e+000  7.000000e+000
    endloop
  endfacet
  facet normal  9.367252e-001 -3.500655e-001 -2.633440e-006
    outer loop
      vertex  1.333900e+000 -6.547295e-001 -7.127003e+000
      vertex  1.182915e+000 -1.058742e+000 -7.500000e+000
      vertex  1.187948e+000 -1.045274e+000 -7.500000e+000
    endloop
  endfacet
  facet normal  5.173957e-001  4.819765e-001 -7.071071e-001
    outer loop
      vertex  8.070005e-001 -6.363330e-001 -7.500000e+000
      vertex  1.383596e+000 -5.217517e-001 -7.000000e+000
      vertex  1.333900e+000 -6.547295e-001 -7.127003e+000
    endloop
  endfacet
  facet normal  5.173953e-001  4.819775e-001 -7.071066e-001
    outer loop
      vertex  8.070005e-001 -6.363330e-001 -7.500000e+000
      vertex  1.333900e+000 -6.547295e-001 -7.127003e+000
      vertex  1.187948e+000 -1.045274e+000 -7.500000e+000
    endloop
  endfacet
  facet normal  5.173953e-001  4.819766e-001 -7.071071e-001
    outer loop
      vertex  1.333900e+000 -6.547295e-001 -7.127003e+000
      vertex  1.383596e+000 -5.217517e-001 -7.000000e+000
      vertex  1.426829e+000 -5.681619e-001 -7.000000e+000
    endloop
  endfacet
  facet normal  6.921014e-001  1.727630e-001 -7.008201e-001
    outer loop
      vertex  1.419837e+000 -1.603102e+000 -7.500000e+000
      vertex  1.834640e+000 -1.236565e+000 -7.000000e+000
      vertex  1.929943e+000 -1.618354e+000 -7.000000e+000
    endloop
  endfacet
  facet normal  6.434686e-001  3.082652e-001 -7.006574e-001
    outer loop
      vertex  1.329534e+000 -1.318666e+000 -7.500000e+000
      vertex  1.664628e+000 -8.816845e-001 -7.000000e+000
      vertex  1.834640e+000 -1.236565e+000 -7.000000e+000
    endloop
  endfacet
  facet normal  6.697448e-001  2.126303e-001 -7.114986e-001
    outer loop
      vertex  1.329534e+000 -1.318666e+000 -7.500000e+000
      vertex  1.834640e+000 -1.236565e+000 -7.000000e+000
      vertex  1.419837e+000 -1.603102e+000 -7.500000e+000
    endloop
  endfacet
  facet normal  7.095878e-001 -1.142646e-001 -6.952904e-001
    outer loop
      vertex  1.884094e+000 -2.400000e+000 -7.000000e+000
      vertex  1.651047e+000 -2.115387e+000 -7.284613e+000
      vertex  1.946654e+000 -2.011502e+000 -7.000000e+000
    endloop
  endfacet
  facet normal  6.993112e-001  7.104047e-002 -7.112785e-001
    outer loop
      vertex  1.449998e+000 -1.900000e+000 -7.500000e+000
      vertex  1.419837e+000 -1.603102e+000 -7.500000e+000
      vertex  1.929943e+000 -1.618354e+000 -7.000000e+000
    endloop
  endfacet
  facet normal  7.125182e-001  3.028689e-002 -7.009996e-001
    outer loop
      vertex  1.449998e+000 -1.900000e+000 -7.500000e+000
      vertex  1.929943e+000 -1.618354e+000 -7.000000e+000
      vertex  1.946654e+000 -2.011502e+000 -7.000000e+000
    endloop
  endfacet
  facet normal  7.023735e-001 -5.412811e-002 -7.097476e-001
    outer loop
      vertex  1.449998e+000 -1.900000e+000 -7.500000e+000
      vertex  1.946654e+000 -2.011502e+000 -7.000000e+000
      vertex  1.651047e+000 -2.115387e+000 -7.284613e+000
    endloop
  endfacet
  facet normal  5.489525e-001  4.469472e-001 -7.063210e-001
    outer loop
      vertex  1.333900e+000 -6.547295e-001 -7.127003e+000
      vertex  1.426829e+000 -5.681619e-001 -7.000000e+000
      vertex  1.182915e+000 -1.058742e+000 -7.500000e+000
    endloop
  endfacet
  facet normal  5.685914e-001  4.312621e-001 -7.005118e-001
    outer loop
      vertex  1.182915e+000 -1.058742e+000 -7.500000e+000
      vertex  1.426829e+000 -5.681619e-001 -7.000000e+000
      vertex  1.664628e+000 -8.816845e-001 -7.000000e+000
    endloop
  endfacet
  facet normal  6.118563e-001  3.451377e-001 -7.116964e-001
    outer loop
      vertex  1.182915e+000 -1.058742e+000 -7.500000e+000
      vertex  1.664628e+000 -8.816845e-001 -7.000000e+000
      vertex  1.329534e+000 -1.318666e+000 -7.500000e+000
    endloop
  endfacet
  facet normal  0.000000e+000 -1.000000e+000  0.000000e+000
    outer loop
      vertex -4.708353e-010 -2.400000e+000 -7.000000e+000
      vertex  1.884094e+000 -2.400000e+000 -7.000000e+000
      vertex -4.708353e-010 -2.400000e+000  7.000000e+000
    endloop
  endfacet
  facet normal  0.000000e+000 -1.000000e+000  0.000000e+000
    outer loop
      vertex -4.708353e-010 -2.400000e+000  7.000000e+000
      vertex  1.884094e+000 -2.400000e+000 -7.000000e+000
      vertex  1.884094e+000 -2.400000e+000  7.000000e+000
    endloop
  endfacet
  facet normal -6.414564e-001  3.073012e-001 -7.029222e-001
    outer loop
      vertex -1.350989e+000 -1.370702e+000 -7.500000e+000
      vertex -1.834640e+000 -1.236565e+000 -7.000000e+000
      vertex -1.664628e+000 -8.816845e-001 -7.000000e+000
    endloop
  endfacet
  facet normal -6.909835e-001  1.724840e-001 -7.019907e-001
    outer loop
      vertex -1.425910e+000 -1.634106e+000 -7.500000e+000
      vertex -1.929943e+000 -1.618354e+000 -7.000000e+000
      vertex -1.834640e+000 -1.236565e+000 -7.000000e+000
    endloop
  endfacet
  facet normal -6.788417e-001  1.930838e-001 -7.084437e-001
    outer loop
      vertex -1.425910e+000 -1.634106e+000 -7.500000e+000
      vertex -1.834640e+000 -1.236565e+000 -7.000000e+000
      vertex -1.350989e+000 -1.370702e+000 -7.500000e+000
    endloop
  endfacet
  facet normal -7.095872e-001 -1.142645e-001 -6.952910e-001
    outer loop
      vertex -1.884094e+000 -2.400000e+000 -7.000000e+000
      vertex -1.946654e+000 -2.011502e+000 -7.000000e+000
      vertex -1.651047e+000 -2.115387e+000 -7.284613e+000
    endloop
  endfacet
  facet normal -7.023730e-001 -5.412845e-002 -7.097481e-001
    outer loop
      vertex -1.449997e+000 -1.900000e+000 -7.500000e+000
      vertex -1.651047e+000 -2.115387e+000 -7.284613e+000
      vertex -1.946654e+000 -2.011502e+000 -7.000000e+000
    endloop
  endfacet
  facet normal -7.125177e-001  3.028687e-002 -7.010002e-001
    outer loop
      vertex -1.449997e+000 -1.900000e+000 -7.500000e+000
      vertex -1.946654e+000 -2.011502e+000 -7.000000e+000
      vertex -1.929943e+000 -1.618354e+000 -7.000000e+000
    endloop
  endfacet
  facet normal -7.018341e-001  6.357811e-002 -7.094976e-001
    outer loop
      vertex -1.449997e+000 -1.900000e+000 -7.500000e+000
      vertex -1.929943e+000 -1.618354e+000 -7.000000e+000
      vertex -1.425910e+000 -1.634106e+000 -7.500000e+000
    endloop
  endfacet
  facet normal -5.648248e-001  4.284053e-001 -7.052956e-001
    outer loop
      vertex -1.426829e+000 -5.681619e-001 -7.000000e+000
      vertex -1.060976e+000 -9.089714e-001 -7.500000e+000
      vertex -1.664628e+000 -8.816845e-001 -7.000000e+000
    endloop
  endfacet
  facet normal -5.632898e-001  4.330334e-001 -7.036949e-001
    outer loop
      vertex -1.664628e+000 -8.816845e-001 -7.000000e+000
      vertex -1.060976e+000 -9.089714e-001 -7.500000e+000
      vertex -1.227881e+000 -1.126082e+000 -7.500000e+000
    endloop
  endfacet
  facet normal -6.316316e-001  3.178777e-001 -7.071034e-001
    outer loop
      vertex -1.664628e+000 -8.816845e-001 -7.000000e+000
      vertex -1.227881e+000 -1.126082e+000 -7.500000e+000
      vertex -1.350989e+000 -1.370702e+000 -7.500000e+000
    endloop
  endfacet
  facet normal  0.000000e+000 -1.000000e+000  0.000000e+000
    outer loop
      vertex -1.884094e+000 -2.400000e+000 -7.000000e+000
      vertex -4.708353e-010 -2.400000e+000 -7.000000e+000
      vertex -1.884094e+000 -2.400000e+000  7.000000e+000
    endloop
  endfacet
  facet normal  0.000000e+000 -1.000000e+000  0.000000e+000
    outer loop
      vertex -1.884094e+000 -2.400000e+000  7.000000e+000
      vertex -4.708353e-010 -2.400000e+000 -7.000000e+000
      vertex -4.708353e-010 -2.400000e+000  7.000000e+000
    endloop
  endfacet
  facet normal  0.000000e+000 -7.071066e-001 -7.071068e-001
    outer loop
      vertex -4.708376e-010 -1.900000e+000 -7.500000e+000
      vertex -4.708353e-010 -2.400000e+000 -7.000000e+000
      vertex -1.449997e+000 -1.900000e+000 -7.500000e+000
    endloop
  endfacet
  facet normal  0.000000e+000 -7.071066e-001 -7.071068e-001
    outer loop
      vertex -1.449997e+000 -1.900000e+000 -7.500000e+000
      vertex -4.708353e-010 -2.400000e+000 -7.000000e+000
      vertex -1.884094e+000 -2.400000e+000 -7.000000e+000
    endloop
  endfacet
  facet normal -8.582811e-006 -7.071029e-001 -7.071106e-001
    outer loop
      vertex -1.449997e+000 -1.900000e+000 -7.500000e+000
      vertex -1.884094e+000 -2.400000e+000 -7.000000e+000
      vertex -1.651047e+000 -2.115387e+000 -7.284613e+000
    endloop
  endfacet
  facet normal  0.000000e+000 -7.071066e-001 -7.071068e-001
    outer loop
      vertex -4.708353e-010 -2.400000e+000 -7.000000e+000
      vertex -4.708376e-010 -1.900000e+000 -7.500000e+000
      vertex  1.884094e+000 -2.400000e+000 -7.000000e+000
    endloop
  endfacet
  facet normal  0.000000e+000 -7.071067e-001 -7.071069e-001
    outer loop
      vertex  1.884094e+000 -2.400000e+000 -7.000000e+000
      vertex -4.708376e-010 -1.900000e+000 -7.500000e+000
      vertex  1.449998e+000 -1.900000e+000 -7.500000e+000
    endloop
  endfacet
  facet normal -3.414637e-006 -7.071082e-001 -7.071055e-001
    outer loop
      vertex  1.884094e+000 -2.400000e+000 -7.000000e+000
      vertex  1.449998e+000 -1.900000e+000 -7.500000e+000
      vertex  1.651047e+000 -2.115387e+000 -7.284613e+000
    endloop
  endfacet
  facet normal  7.317080e-001  6.816183e-001  0.000000e+000
    outer loop
      vertex  1.426829e+000 -5.681619e-001 -7.000000e+000
      vertex  1.383596e+000 -5.217517e-001 -7.000000e+000
      vertex  1.426829e+000 -5.681619e-001  7.000000e+000
    endloop
  endfacet
  facet normal  7.317080e-001  6.816183e-001  0.000000e+000
    outer loop
      vertex  1.426829e+000 -5.681619e-001  7.000000e+000
      vertex  1.383596e+000 -5.217517e-001 -7.000000e+000
      vertex  1.383596e+000 -5.217517e-001  7.000000e+000
    endloop
  endfacet
  facet normal  7.967473e-001  6.043126e-001  0.000000e+000
    outer loop
      vertex  1.426829e+000 -5.681619e-001 -7.000000e+000
      vertex  1.426829e+000 -5.681619e-001  7.000000e+000
      vertex  1.664628e+000 -8.816845e-001 -7.000000e+000
    endloop
  endfacet
  facet normal  7.967473e-001  6.043126e-001  -0.000000e+000
    outer loop
      vertex  1.664628e+000 -8.816845e-001 -7.000000e+000
      vertex  1.426829e+000 -5.681619e-001  7.000000e+000
      vertex  1.664628e+000 -8.816845e-001  7.000000e+000
    endloop
  endfacet
  facet normal  9.018508e-001  4.320478e-001  0.000000e+000
    outer loop
      vertex  1.664628e+000 -8.816845e-001 -7.000000e+000
      vertex  1.664628e+000 -8.816845e-001  7.000000e+000
      vertex  1.834640e+000 -1.236565e+000 -7.000000e+000
    endloop
  endfacet
  facet normal  9.018508e-001  4.320478e-001  -0.000000e+000
    outer loop
      vertex  1.834640e+000 -1.236565e+000 -7.000000e+000
      vertex  1.664628e+000 -8.816845e-001  7.000000e+000
      vertex  1.834640e+000 -1.236565e+000  7.000000e+000
    endloop
  endfacet
  facet normal  9.702289e-001  2.421895e-001  0.000000e+000
    outer loop
      vertex  1.834640e+000 -1.236565e+000 -7.000000e+000
      vertex  1.834640e+000 -1.236565e+000  7.000000e+000
      vertex  1.929943e+000 -1.618354e+000 -7.000000e+000
    endloop
  endfacet
  facet normal  9.702289e-001  2.421895e-001  -0.000000e+000
    outer loop
      vertex  1.929943e+000 -1.618354e+000 -7.000000e+000
      vertex  1.834640e+000 -1.236565e+000  7.000000e+000
      vertex  1.929943e+000 -1.618354e+000  7.000000e+000
    endloop
  endfacet
  facet normal  9.990979e-001  4.246848e-002  0.000000e+000
    outer loop
      vertex  1.929943e+000 -1.618354e+000 -7.000000e+000
      vertex  1.929943e+000 -1.618354e+000  7.000000e+000
      vertex  1.946654e+000 -2.011502e+000 -7.000000e+000
    endloop
  endfacet
  facet normal  9.990979e-001  4.246848e-002  -0.000000e+000
    outer loop
      vertex  1.946654e+000 -2.011502e+000 -7.000000e+000
      vertex  1.929943e+000 -1.618354e+000  7.000000e+000
      vertex  1.946654e+000 -2.011502e+000  7.000000e+000
    endloop
  endfacet
  facet normal  9.872816e-001 -1.589814e-001  0.000000e+000
    outer loop
      vertex  1.946654e+000 -2.011502e+000 -7.000000e+000
      vertex  1.946654e+000 -2.011502e+000  7.000000e+000
      vertex  1.884094e+000 -2.400000e+000 -7.000000e+000
    endloop
  endfacet
  facet normal  9.872816e-001 -1.589814e-001  0.000000e+000
    outer loop
      vertex  1.884094e+000 -2.400000e+000 -7.000000e+000
      vertex  1.946654e+000 -2.011502e+000  7.000000e+000
      vertex  1.884094e+000 -2.400000e+000  7.000000e+000
    endloop
  endfacet
  facet normal -7.317080e-001  6.816183e-001  0.000000e+000
    outer loop
      vertex -1.383596e+000 -5.217517e-001 -7.000000e+000
      vertex -1.426829e+000 -5.681619e-001 -7.000000e+000
      vertex -1.383596e+000 -5.217517e-001  7.000000e+000
    endloop
  endfacet
  facet normal -7.317080e-001  6.816183e-001  0.000000e+000
    outer loop
      vertex -1.383596e+000 -5.217517e-001  7.000000e+000
      vertex -1.426829e+000 -5.681619e-001 -7.000000e+000
      vertex -1.426829e+000 -5.681619e-001  7.000000e+000
    endloop
  endfacet
  facet normal -9.872816e-001 -1.589814e-001  -0.000000e+000
    outer loop
      vertex -1.884094e+000 -2.400000e+000 -7.000000e+000
      vertex -1.884094e+000 -2.400000e+000  7.000000e+000
      vertex -1.946654e+000 -2.011502e+000 -7.000000e+000
    endloop
  endfacet
  facet normal -9.872816e-001 -1.589814e-001  0.000000e+000
    outer loop
      vertex -1.946654e+000 -2.011502e+000 -7.000000e+000
      vertex -1.884094e+000 -2.400000e+000  7.000000e+000
      vertex -1.946654e+000 -2.011502e+000  7.000000e+000
    endloop
  endfacet
  facet normal -9.990979e-001  4.246848e-002  0.000000e+000
    outer loop
      vertex -1.946654e+000 -2.011502e+000 -7.000000e+000
      vertex -1.946654e+000 -2.011502e+000  7.000000e+000
      vertex -1.929943e+000 -1.618354e+000 -7.000000e+000
    endloop
  endfacet
  facet normal -9.990979e-001  4.246848e-002  0.000000e+000
    outer loop
      vertex -1.929943e+000 -1.618354e+000 -7.000000e+000
      vertex -1.946654e+000 -2.011502e+000  7.000000e+000
      vertex -1.929943e+000 -1.618354e+000  7.000000e+000
    endloop
  endfacet
  facet normal -9.702289e-001  2.421895e-001  0.000000e+000
    outer loop
      vertex -1.929943e+000 -1.618354e+000 -7.000000e+000
      vertex -1.929943e+000 -1.618354e+000  7.000000e+000
      vertex -1.834640e+000 -1.236565e+000 -7.000000e+000
    endloop
  endfacet
  facet normal -9.702289e-001  2.421895e-001  0.000000e+000
    outer loop
      vertex -1.834640e+000 -1.236565e+000 -7.000000e+000
      vertex -1.929943e+000 -1.618354e+000  7.000000e+000
      vertex -1.834640e+000 -1.236565e+000  7.000000e+000
    endloop
  endfacet
  facet normal -9.018508e-001  4.320478e-001  0.000000e+000
    outer loop
      vertex -1.834640e+000 -1.236565e+000 -7.000000e+000
      vertex -1.834640e+000 -1.236565e+000  7.000000e+000
      vertex -1.664628e+000 -8.816845e-001 -7.000000e+000
    endloop
  endfacet
  facet normal -9.018508e-001  4.320478e-001  0.000000e+000
    outer loop
      vertex -1.664628e+000 -8.816845e-001 -7.000000e+000
      vertex -1.834640e+000 -1.236565e+000  7.000000e+000
      vertex -1.664628e+000 -8.816845e-001  7.000000e+000
    endloop
  endfacet
  facet normal -7.967473e-001  6.043126e-001  0.000000e+000
    outer loop
      vertex -1.664628e+000 -8.816845e-001 -7.000000e+000
      vertex -1.664628e+000 -8.816845e-001  7.000000e+000
      vertex -1.426829e+000 -5.681619e-001 -7.000000e+000
    endloop
  endfacet
  facet normal -7.967473e-001  6.043126e-001  0.000000e+000
    outer loop
      vertex -1.426829e+000 -5.681619e-001 -7.000000e+000
      vertex -1.664628e+000 -8.816845e-001  7.000000e+000
      vertex -1.426829e+000 -5.681619e-001  7.000000e+000
    endloop
  endfacet
  facet normal -6.623642e-001 -2.475351e-001 -7.071068e-001
    outer loop
      vertex -8.070005e-001 -6.363330e-001 -7.500000e+000
      vertex -1.383596e+000 -5.217517e-001 -7.000000e+000
      vertex -1.231665e+000  5.000000e-001 -7.500000e+000
    endloop
  endfacet
  facet normal -6.623643e-001 -2.475351e-001 -7.071068e-001
    outer loop
      vertex -1.231665e+000  5.000000e-001 -7.500000e+000
      vertex -1.383596e+000 -5.217517e-001 -7.000000e+000
      vertex -1.578582e+000  0.000000e+000 -7.000000e+000
    endloop
  endfacet
  facet normal -5.173953e-001  4.819773e-001 -7.071068e-001
    outer loop
      vertex -1.060976e+000 -9.089714e-001 -7.500000e+000
      vertex -1.426829e+000 -5.681619e-001 -7.000000e+000
      vertex -8.070005e-001 -6.363330e-001 -7.500000e+000
    endloop
  endfacet
  facet normal -5.173955e-001  4.819768e-001 -7.071070e-001
    outer loop
      vertex -8.070005e-001 -6.363330e-001 -7.500000e+000
      vertex -1.426829e+000 -5.681619e-001 -7.000000e+000
      vertex -1.383596e+000 -5.217517e-001 -7.000000e+000
    endloop
  endfacet
  facet normal -9.367244e-001 -3.500674e-001  0.000000e+000
    outer loop
      vertex -1.578582e+000  0.000000e+000 -7.000000e+000
      vertex -1.383596e+000 -5.217517e-001 -7.000000e+000
      vertex -1.578582e+000  0.000000e+000  7.000000e+000
    endloop
  endfacet
  facet normal -9.367244e-001 -3.500674e-001  0.000000e+000
    outer loop
      vertex -1.578582e+000  0.000000e+000  7.000000e+000
      vertex -1.383596e+000 -5.217517e-001 -7.000000e+000
      vertex -1.383596e+000 -5.217517e-001  7.000000e+000
    endloop
  endfacet
  facet normal  0.000000e+000 -1.000000e+000  0.000000e+000
    outer loop
      vertex -7.500000e+000  0.000000e+000 -7.000000e+000
      vertex -1.578582e+000  0.000000e+000 -7.000000e+000
      vertex -7.500000e+000  0.000000e+000  7.000000e+000
    endloop
  endfacet
  facet normal  0.000000e+000 -1.000000e+000  0.000000e+000
    outer loop
      vertex -7.500000e+000  0.000000e+000  7.000000e+000
      vertex -1.578582e+000  0.000000e+000 -7.000000e+000
      vertex -1.578582e+000  0.000000e+000  7.000000e+000
    endloop
  endfacet
  facet normal  0.000000e+000  7.071067e-001  7.071067e-001
    outer loop
      vertex -1.231665e+000  9.500000e+000  7.500000e+000
      vertex -1.578582e+000  1.000000e+001  7.000000e+000
      vertex -7.000000e+000  9.500000e+000  7.500000e+000
    endloop
  endfacet
  facet normal  0.000000e+000  7.071068e-001  7.071068e-001
    outer loop
      vertex -7.000000e+000  9.500000e+000  7.500000e+000
      vertex -1.578582e+000  1.000000e+001  7.000000e+000
      vertex -7.500000e+000  1.000000e+001  7.000000e+000
    endloop
  endfacet
  facet normal  0.000000e+000  0.000000e+000  1.000000e+000
    outer loop
      vertex -4.708376e-010 -1.900000e+000  7.500000e+000
      vertex -1.425910e+000 -1.634106e+000  7.500000e+000
      vertex -1.449997e+000 -1.900000e+000  7.500000e+000
    endloop
  endfacet
  facet normal  0.000000e+000  -0.000000e+000  1.000000e+000
    outer loop
      vertex -1.419837e+000  1.160310e+001  7.500000e+000
      vertex -1.329534e+000  1.131867e+001  7.500000e+000
      vertex  1.350989e+000  1.137070e+001  7.500000e+000
    endloop
  endfacet
  facet normal  0.000000e+000  -0.000000e+000  1.000000e+000
    outer loop
      vertex -1.419837e+000  1.160310e+001  7.500000e+000
      vertex  1.350989e+000  1.137070e+001  7.500000e+000
      vertex  1.425910e+000  1.163411e+001  7.500000e+000
    endloop
  endfacet
  facet normal  0.000000e+000  -0.000000e+000  1.000000e+000
    outer loop
      vertex -1.419837e+000  1.160310e+001  7.500000e+000
      vertex  1.425910e+000  1.163411e+001  7.500000e+000
      vertex  1.449997e+000  1.190000e+001  7.500000e+000
    endloop
  endfacet
  facet normal  0.000000e+000  0.000000e+000  1.000000e+000
    outer loop
      vertex -1.419837e+000  1.160310e+001  7.500000e+000
      vertex  1.449997e+000  1.190000e+001  7.500000e+000
      vertex -4.708358e-010  1.190000e+001  7.500000e+000
    endloop
  endfacet
  facet normal  0.000000e+000  0.000000e+000  1.000000e+000
    outer loop
      vertex -1.419837e+000  1.160310e+001  7.500000e+000
      vertex -4.708358e-010  1.190000e+001  7.500000e+000
      vertex -1.449998e+000  1.190000e+001  7.500000e+000
    endloop
  endfacet
  facet normal  0.000000e+000  0.000000e+000  1.000000e+000
    outer loop
      vertex  7.000000e+000  9.500000e+000  7.500000e+000
      vertex -7.000000e+000  5.000000e-001  7.500000e+000
      vertex -1.231665e+000  5.000000e-001  7.500000e+000
    endloop
  endfacet
  facet normal  0.000000e+000  0.000000e+000  1.000000e+000
    outer loop
      vertex  7.000000e+000  9.500000e+000  7.500000e+000
      vertex -1.231665e+000  5.000000e-001  7.500000e+000
      vertex  1.231665e+000  5.000000e-001  7.500000e+000
    endloop
  endfacet
  facet normal  0.000000e+000  0.000000e+000  1.000000e+000
    outer loop
      vertex  7.000000e+000  9.500000e+000  7.500000e+000
      vertex  1.231665e+000  5.000000e-001  7.500000e+000
      vertex  7.000000e+000  5.000000e-001  7.500000e+000
    endloop
  endfacet
  facet normal  0.000000e+000  0.000000e+000  1.000000e+000
    outer loop
      vertex -7.000000e+000  5.000000e-001  7.500000e+000
      vertex  7.000000e+000  9.500000e+000  7.500000e+000
      vertex  1.231665e+000  9.500000e+000  7.500000e+000
    endloop
  endfacet
  facet normal  0.000000e+000  0.000000e+000  1.000000e+000
    outer loop
      vertex -7.000000e+000  5.000000e-001  7.500000e+000
      vertex  1.231665e+000  9.500000e+000  7.500000e+000
      vertex -1.231665e+000  9.500000e+000  7.500000e+000
    endloop
  endfacet
  facet normal  0.000000e+000  0.000000e+000  1.000000e+000
    outer loop
      vertex -7.000000e+000  5.000000e-001  7.500000e+000
      vertex -1.231665e+000  9.500000e+000  7.500000e+000
      vertex -7.000000e+000  9.500000e+000  7.500000e+000
    endloop
  endfacet
  facet normal  -0.000000e+000  0.000000e+000  1.000000e+000
    outer loop
      vertex  1.350989e+000  1.137070e+001  7.500000e+000
      vertex -1.329534e+000  1.131867e+001  7.500000e+000
      vertex  1.227881e+000  1.112608e+001  7.500000e+000
    endloop
  endfacet
  facet normal  0.000000e+000  0.000000e+000  9.999999e-001
    outer loop
      vertex  1.227881e+000  1.112608e+001  7.500000e+000
      vertex -1.329534e+000  1.131867e+001  7.500000e+000
      vertex -1.182915e+000  1.105874e+001  7.500000e+000
    endloop
  endfacet
  facet normal  -0.000000e+000  0.000000e+000  1.000000e+000
    outer loop
      vertex  1.227881e+000  1.112608e+001  7.500000e+000
      vertex -1.182915e+000  1.105874e+001  7.500000e+000
      vertex  1.060976e+000  1.090897e+001  7.500000e+000
    endloop
  endfacet
  facet normal  0.000000e+000  0.000000e+000  1.000000e+000
    outer loop
      vertex  1.060976e+000  1.090897e+001  7.500000e+000
      vertex -1.182915e+000  1.105874e+001  7.500000e+000
      vertex -1.187948e+000  1.104527e+001  7.500000e+000
    endloop
  endfacet
  facet normal  0.000000e+000  0.000000e+000  1.000000e+000
    outer loop
      vertex  1.060976e+000  1.090897e+001  7.500000e+000
      vertex -1.187948e+000  1.104527e+001  7.500000e+000
      vertex  8.070005e-001  1.063633e+001  7.500000e+000
    endloop
  endfacet
  facet normal  0.000000e+000  0.000000e+000  9.999999e-001
    outer loop
      vertex  8.070005e-001  1.063633e+001  7.500000e+000
      vertex -1.187948e+000  1.104527e+001  7.500000e+000
      vertex -8.070005e-001  1.063633e+001  7.500000e+000
    endloop
  endfacet
  facet normal  -0.000000e+000  0.000000e+000  9.999999e-001
    outer loop
      vertex  8.070005e-001  1.063633e+001  7.500000e+000
      vertex -8.070005e-001  1.063633e+001  7.500000e+000
      vertex  1.231665e+000  9.500000e+000  7.500000e+000
    endloop
  endfacet
  facet normal  0.000000e+000  0.000000e+000  1.000000e+000
    outer loop
      vertex  1.231665e+000  9.500000e+000  7.500000e+000
      vertex -8.070005e-001  1.063633e+001  7.500000e+000
      vertex -1.231665e+000  9.500000e+000  7.500000e+000
    endloop
  endfacet
  facet normal  -0.000000e+000  0.000000e+000  1.000000e+000
    outer loop
      vertex  1.231665e+000  5.000000e-001  7.500000e+000
      vertex -1.231665e+000  5.000000e-001  7.500000e+000
      vertex  8.070005e-001 -6.363330e-001  7.500000e+000
    endloop
  endfacet
  facet normal  0.000000e+000  0.000000e+000  1.000000e+000
    outer loop
      vertex  8.070005e-001 -6.363330e-001  7.500000e+000
      vertex -1.231665e+000  5.000000e-001  7.500000e+000
      vertex -8.070005e-001 -6.363330e-001  7.500000e+000
    endloop
  endfacet
  facet normal  -0.000000e+000  0.000000e+000  9.999999e-001
    outer loop
      vertex  8.070005e-001 -6.363330e-001  7.500000e+000
      vertex -8.070005e-001 -6.363330e-001  7.500000e+000
      vertex  1.187948e+000 -1.045274e+000  7.500000e+000
    endloop
  endfacet
  facet normal  0.000000e+000  0.000000e+000  1.000000e+000
    outer loop
      vertex  1.187948e+000 -1.045274e+000  7.500000e+000
      vertex -8.070005e-001 -6.363330e-001  7.500000e+000
      vertex -1.060976e+000 -9.089714e-001  7.500000e+000
    endloop
  endfacet
  facet normal  0.000000e+000  0.000000e+000  1.000000e+000
    outer loop
      vertex  1.187948e+000 -1.045274e+000  7.500000e+000
      vertex -1.060976e+000 -9.089714e-001  7.500000e+000
      vertex  1.182915e+000 -1.058742e+000  7.500000e+000
    endloop
  endfacet
  facet normal  0.000000e+000  0.000000e+000  1.000000e+000
    outer loop
      vertex  1.182915e+000 -1.058742e+000  7.500000e+000
      vertex -1.060976e+000 -9.089714e-001  7.500000e+000
      vertex -1.227881e+000 -1.126082e+000  7.500000e+000
    endloop
  endfacet
  facet normal  -0.000000e+000  0.000000e+000  1.000000e+000
    outer loop
      vertex  1.182915e+000 -1.058742e+000  7.500000e+000
      vertex -1.227881e+000 -1.126082e+000  7.500000e+000
      vertex  1.329534e+000 -1.318667e+000  7.500000e+000
    endloop
  endfacet
  facet normal  0.000000e+000  0.000000e+000  1.000000e+000
    outer loop
      vertex  1.329534e+000 -1.318667e+000  7.500000e+000
      vertex -1.227881e+000 -1.126082e+000  7.500000e+000
      vertex -1.350989e+000 -1.370702e+000  7.500000e+000
    endloop
  endfacet
  facet normal  -0.000000e+000  0.000000e+000  1.000000e+000
    outer loop
      vertex  1.329534e+000 -1.318667e+000  7.500000e+000
      vertex -1.350989e+000 -1.370702e+000  7.500000e+000
      vertex  1.419837e+000 -1.603102e+000  7.500000e+000
    endloop
  endfacet
  facet normal  0.000000e+000  0.000000e+000  1.000000e+000
    outer loop
      vertex  1.419837e+000 -1.603102e+000  7.500000e+000
      vertex -1.350989e+000 -1.370702e+000  7.500000e+000
      vertex -1.425910e+000 -1.634106e+000  7.500000e+000
    endloop
  endfacet
  facet normal  -0.000000e+000  0.000000e+000  1.000000e+000
    outer loop
      vertex  1.419837e+000 -1.603102e+000  7.500000e+000
      vertex -1.425910e+000 -1.634106e+000  7.500000e+000
      vertex  1.449998e+000 -1.900000e+000  7.500000e+000
    endloop
  endfacet
  facet normal  0.000000e+000  0.000000e+000  9.999999e-001
    outer loop
      vertex  1.449998e+000 -1.900000e+000  7.500000e+000
      vertex -1.425910e+000 -1.634106e+000  7.500000e+000
      vertex -4.708376e-010 -1.900000e+000  7.500000e+000
    endloop
  endfacet
  facet normal  0.000000e+000 -7.071067e-001  7.071067e-001
    outer loop
      vertex -7.000000e+000  5.000000e-001  7.500000e+000
      vertex -7.500000e+000  0.000000e+000  7.000000e+000
      vertex -1.231665e+000  5.000000e-001  7.500000e+000
    endloop
  endfacet
  facet normal  0.000000e+000 -7.071068e-001  7.071068e-001
    outer loop
      vertex -1.231665e+000  5.000000e-001  7.500000e+000
      vertex -7.500000e+000  0.000000e+000  7.000000e+000
      vertex -1.578582e+000  0.000000e+000  7.000000e+000
    endloop
  endfacet
  facet normal -7.071067e-001  0.000000e+000  7.071067e-001
    outer loop
      vertex -7.000000e+000  9.500000e+000  7.500000e+000
      vertex -7.500000e+000  1.000000e+001  7.000000e+000
      vertex -7.000000e+000  5.000000e-001  7.500000e+000
    endloop
  endfacet
  facet normal -7.071068e-001  0.000000e+000  7.071068e-001
    outer loop
      vertex -7.000000e+000  5.000000e-001  7.500000e+000
      vertex -7.500000e+000  1.000000e+001  7.000000e+000
      vertex -7.500000e+000  0.000000e+000  7.000000e+000
    endloop
  endfacet
  facet normal -6.623644e-001  2.475350e-001  7.071066e-001
    outer loop
      vertex -8.070005e-001  1.063633e+001  7.500000e+000
      vertex -1.383596e+000  1.052175e+001  7.000000e+000
      vertex -1.231665e+000  9.500000e+000  7.500000e+000
    endloop
  endfacet
  facet normal -6.623642e-001  2.475352e-001  7.071068e-001
    outer loop
      vertex -1.231665e+000  9.500000e+000  7.500000e+000
      vertex -1.383596e+000  1.052175e+001  7.000000e+000
      vertex -1.578582e+000  1.000000e+001  7.000000e+000
    endloop
  endfacet
  facet normal -9.367211e-001  3.500764e-001 -1.045674e-005
    outer loop
      vertex -1.187948e+000  1.104527e+001  7.500000e+000
      vertex -1.182915e+000  1.105874e+001  7.500000e+000
      vertex -1.333900e+000  1.065473e+001  7.127003e+000
    endloop
  endfacet
  facet normal -5.173961e-001 -4.819748e-001  7.071079e-001
    outer loop
      vertex -1.333900e+000  1.065473e+001  7.127003e+000
      vertex -1.383596e+000  1.052175e+001  7.000000e+000
      vertex -8.070005e-001  1.063633e+001  7.500000e+000
    endloop
  endfacet
  facet normal -5.173953e-001 -4.819774e-001  7.071067e-001
    outer loop
      vertex -1.187948e+000  1.104527e+001  7.500000e+000
      vertex -1.333900e+000  1.065473e+001  7.127003e+000
      vertex -8.070005e-001  1.063633e+001  7.500000e+000
    endloop
  endfacet
  facet normal -5.173969e-001 -4.819743e-001  7.071077e-001
    outer loop
      vertex -1.426829e+000  1.056816e+001  7.000000e+000
      vertex -1.383596e+000  1.052175e+001  7.000000e+000
      vertex -1.333900e+000  1.065473e+001  7.127003e+000
    endloop
  endfacet
  facet normal -6.921014e-001 -1.727630e-001  7.008200e-001
    outer loop
      vertex -1.929943e+000  1.161835e+001  7.000000e+000
      vertex -1.834640e+000  1.123657e+001  7.000000e+000
      vertex -1.419837e+000  1.160310e+001  7.500000e+000
    endloop
  endfacet
  facet normal -6.434687e-001 -3.082650e-001  7.006574e-001
    outer loop
      vertex -1.834640e+000  1.123657e+001  7.000000e+000
      vertex -1.664628e+000  1.088168e+001  7.000000e+000
      vertex -1.329534e+000  1.131867e+001  7.500000e+000
    endloop
  endfacet
  facet normal -6.697448e-001 -2.126305e-001  7.114986e-001
    outer loop
      vertex -1.419837e+000  1.160310e+001  7.500000e+000
      vertex -1.834640e+000  1.123657e+001  7.000000e+000
      vertex -1.329534e+000  1.131867e+001  7.500000e+000
    endloop
  endfacet
  facet normal -7.095878e-001  1.142646e-001  6.952905e-001
    outer loop
      vertex -1.946654e+000  1.201150e+001  7.000000e+000
      vertex -1.651047e+000  1.211539e+001  7.284613e+000
      vertex -1.884094e+000  1.240000e+001  7.000000e+000
    endloop
  endfacet
  facet normal -7.023734e-001  5.412851e-002  7.097476e-001
    outer loop
      vertex -1.449998e+000  1.190000e+001  7.500000e+000
      vertex -1.651047e+000  1.211539e+001  7.284613e+000
      vertex -1.946654e+000  1.201150e+001  7.000000e+000
    endloop
  endfacet
  facet normal -7.125183e-001 -3.028693e-002  7.009996e-001
    outer loop
      vertex -1.449998e+000  1.190000e+001  7.500000e+000
      vertex -1.946654e+000  1.201150e+001  7.000000e+000
      vertex -1.929943e+000  1.161835e+001  7.000000e+000
    endloop
  endfacet
  facet normal -6.993112e-001 -7.104050e-002  7.112784e-001
    outer loop
      vertex -1.449998e+000  1.190000e+001  7.500000e+000
      vertex -1.929943e+000  1.161835e+001  7.000000e+000
      vertex -1.419837e+000  1.160310e+001  7.500000e+000
    endloop
  endfacet
  facet normal -5.648239e-001 -4.284049e-001  7.052965e-001
    outer loop
      vertex -1.426829e+000  1.056816e+001  7.000000e+000
      vertex -1.333900e+000  1.065473e+001  7.127003e+000
      vertex -1.664628e+000  1.088168e+001  7.000000e+000
    endloop
  endfacet
  facet normal -5.668808e-001 -4.343835e-001  6.999694e-001
    outer loop
      vertex -1.664628e+000  1.088168e+001  7.000000e+000
      vertex -1.333900e+000  1.065473e+001  7.127003e+000
      vertex -1.182915e+000  1.105874e+001  7.500000e+000
    endloop
  endfacet
  facet normal -6.118563e-001 -3.451377e-001  7.116966e-001
    outer loop
      vertex -1.664628e+000  1.088168e+001  7.000000e+000
      vertex -1.182915e+000  1.105874e+001  7.500000e+000
      vertex -1.329534e+000  1.131867e+001  7.500000e+000
    endloop
  endfacet
  facet normal  6.414565e-001 -3.073010e-001  7.029223e-001
    outer loop
      vertex  1.664628e+000  1.088168e+001  7.000000e+000
      vertex  1.834640e+000  1.123657e+001  7.000000e+000
      vertex  1.350989e+000  1.137070e+001  7.500000e+000
    endloop
  endfacet
  facet normal  6.909837e-001 -1.724840e-001  7.019906e-001
    outer loop
      vertex  1.834640e+000  1.123657e+001  7.000000e+000
      vertex  1.929943e+000  1.161835e+001  7.000000e+000
      vertex  1.425910e+000  1.163411e+001  7.500000e+000
    endloop
  endfacet
  facet normal  6.788416e-001 -1.930841e-001  7.084437e-001
    outer loop
      vertex  1.350989e+000  1.137070e+001  7.500000e+000
      vertex  1.834640e+000  1.123657e+001  7.000000e+000
      vertex  1.425910e+000  1.163411e+001  7.500000e+000
    endloop
  endfacet
  facet normal  7.095873e-001  1.142646e-001  6.952909e-001
    outer loop
      vertex  1.651047e+000  1.211539e+001  7.284613e+000
      vertex  1.946654e+000  1.201150e+001  7.000000e+000
      vertex  1.884094e+000  1.240000e+001  7.000000e+000
    endloop
  endfacet
  facet normal  7.018341e-001 -6.357814e-002  7.094976e-001
    outer loop
      vertex  1.449997e+000  1.190000e+001  7.500000e+000
      vertex  1.425910e+000  1.163411e+001  7.500000e+000
      vertex  1.929943e+000  1.161835e+001  7.000000e+000
    endloop
  endfacet
  facet normal  7.125177e-001 -3.028691e-002  7.010001e-001
    outer loop
      vertex  1.449997e+000  1.190000e+001  7.500000e+000
      vertex  1.929943e+000  1.161835e+001  7.000000e+000
      vertex  1.946654e+000  1.201150e+001  7.000000e+000
    endloop
  endfacet
  facet normal  7.023730e-001  5.412827e-002  7.097480e-001
    outer loop
      vertex  1.449997e+000  1.190000e+001  7.500000e+000
      vertex  1.946654e+000  1.201150e+001  7.000000e+000
      vertex  1.651047e+000  1.211539e+001  7.284613e+000
    endloop
  endfacet
  facet normal  5.618516e-001 -4.319282e-001  7.055217e-001
    outer loop
      vertex  1.060976e+000  1.090897e+001  7.500000e+000
      vertex  1.426829e+000  1.056816e+001  7.000000e+000
      vertex  1.227881e+000  1.112608e+001  7.500000e+000
    endloop
  endfacet
  facet normal  5.658301e-001 -4.291681e-001  7.040249e-001
    outer loop
      vertex  1.227881e+000  1.112608e+001  7.500000e+000
      vertex  1.426829e+000  1.056816e+001  7.000000e+000
      vertex  1.664628e+000  1.088168e+001  7.000000e+000
    endloop
  endfacet
  facet normal  6.316314e-001 -3.178777e-001  7.071036e-001
    outer loop
      vertex  1.227881e+000  1.112608e+001  7.500000e+000
      vertex  1.664628e+000  1.088168e+001  7.000000e+000
      vertex  1.350989e+000  1.137070e+001  7.500000e+000
    endloop
  endfacet
  facet normal  0.000000e+000  7.071068e-001  7.071068e-001
    outer loop
      vertex -4.708351e-010  1.240000e+001  7.000000e+000
      vertex -4.708358e-010  1.190000e+001  7.500000e+000
      vertex  1.884094e+000  1.240000e+001  7.000000e+000
    endloop
  endfacet
  facet normal  0.000000e+000  7.071067e-001  7.071067e-001
    outer loop
      vertex  1.884094e+000  1.240000e+001  7.000000e+000
      vertex -4.708358e-010  1.190000e+001  7.500000e+000
      vertex  1.449997e+000  1.190000e+001  7.500000e+000
    endloop
  endfacet
  facet normal -2.399536e-005  7.071172e-001  7.070964e-001
    outer loop
      vertex  1.884094e+000  1.240000e+001  7.000000e+000
      vertex  1.449997e+000  1.190000e+001  7.500000e+000
      vertex  1.651047e+000  1.211539e+001  7.284613e+000
    endloop
  endfacet
  facet normal  0.000000e+000  7.071068e-001  7.071068e-001
    outer loop
      vertex -4.708358e-010  1.190000e+001  7.500000e+000
      vertex -4.708351e-010  1.240000e+001  7.000000e+000
      vertex -1.449998e+000  1.190000e+001  7.500000e+000
    endloop
  endfacet
  facet normal  0.000000e+000  7.071068e-001  7.071068e-001
    outer loop
      vertex -1.449998e+000  1.190000e+001  7.500000e+000
      vertex -4.708351e-010  1.240000e+001  7.000000e+000
      vertex -1.884094e+000  1.240000e+001  7.000000e+000
    endloop
  endfacet
  facet normal  2.399545e-005  7.071171e-001  7.070963e-001
    outer loop
      vertex -1.449998e+000  1.190000e+001  7.500000e+000
      vertex -1.884094e+000  1.240000e+001  7.000000e+000
      vertex -1.651047e+000  1.211539e+001  7.284613e+000
    endloop
  endfacet
  facet normal  6.623644e-001  2.475352e-001  7.071066e-001
    outer loop
      vertex  1.383596e+000  1.052175e+001  7.000000e+000
      vertex  8.070005e-001  1.063633e+001  7.500000e+000
      vertex  1.578582e+000  1.000000e+001  7.000000e+000
    endloop
  endfacet
  facet normal  6.623643e-001  2.475350e-001  7.071067e-001
    outer loop
      vertex  1.578582e+000  1.000000e+001  7.000000e+000
      vertex  8.070005e-001  1.063633e+001  7.500000e+000
      vertex  1.231665e+000  9.500000e+000  7.500000e+000
    endloop
  endfacet
  facet normal  5.173974e-001 -4.819748e-001  7.071070e-001
    outer loop
      vertex  1.426829e+000  1.056816e+001  7.000000e+000
      vertex  1.060976e+000  1.090897e+001  7.500000e+000
      vertex  1.383596e+000  1.052175e+001  7.000000e+000
    endloop
  endfacet
  facet normal  5.173950e-001 -4.819771e-001  7.071072e-001
    outer loop
      vertex  1.383596e+000  1.052175e+001  7.000000e+000
      vertex  1.060976e+000  1.090897e+001  7.500000e+000
      vertex  8.070005e-001  1.063633e+001  7.500000e+000
    endloop
  endfacet
  facet normal  0.000000e+000  7.071067e-001  7.071067e-001
    outer loop
      vertex  7.000000e+000  9.500000e+000  7.500000e+000
      vertex  7.500000e+000  1.000000e+001  7.000000e+000
      vertex  1.231665e+000  9.500000e+000  7.500000e+000
    endloop
  endfacet
  facet normal  0.000000e+000  7.071068e-001  7.071068e-001
    outer loop
      vertex  1.231665e+000  9.500000e+000  7.500000e+000
      vertex  7.500000e+000  1.000000e+001  7.000000e+000
      vertex  1.578582e+000  1.000000e+001  7.000000e+000
    endloop
  endfacet
  facet normal  0.000000e+000 -7.071067e-001  7.071067e-001
    outer loop
      vertex  1.231665e+000  5.000000e-001  7.500000e+000
      vertex  1.578582e+000  0.000000e+000  7.000000e+000
      vertex  7.000000e+000  5.000000e-001  7.500000e+000
    endloop
  endfacet
  facet normal  0.000000e+000 -7.071068e-001  7.071068e-001
    outer loop
      vertex  7.000000e+000  5.000000e-001  7.500000e+000
      vertex  1.578582e+000  0.000000e+000  7.000000e+000
      vertex  7.500000e+000  0.000000e+000  7.000000e+000
    endloop
  endfacet
  facet normal  7.071067e-001  0.000000e+000  7.071067e-001
    outer loop
      vertex  7.000000e+000  5.000000e-001  7.500000e+000
      vertex  7.500000e+000  0.000000e+000  7.000000e+000
      vertex  7.000000e+000  9.500000e+000  7.500000e+000
    endloop
  endfacet
  facet normal  7.071068e-001  0.000000e+000  7.071068e-001
    outer loop
      vertex  7.000000e+000  9.500000e+000  7.500000e+000
      vertex  7.500000e+000  0.000000e+000  7.000000e+000
      vertex  7.500000e+000  1.000000e+001  7.000000e+000
    endloop
  endfacet
  facet normal  6.623642e-001 -2.475351e-001  7.071068e-001
    outer loop
      vertex  8.070005e-001 -6.363330e-001  7.500000e+000
      vertex  1.383596e+000 -5.217517e-001  7.000000e+000
      vertex  1.231665e+000  5.000000e-001  7.500000e+000
    endloop
  endfacet
  facet normal  6.623643e-001 -2.475351e-001  7.071068e-001
    outer loop
      vertex  1.231665e+000  5.000000e-001  7.500000e+000
      vertex  1.383596e+000 -5.217517e-001  7.000000e+000
      vertex  1.578582e+000  0.000000e+000  7.000000e+000
    endloop
  endfacet
  facet normal  9.367252e-001 -3.500655e-001  2.633440e-006
    outer loop
      vertex  1.187948e+000 -1.045274e+000  7.500000e+000
      vertex  1.182915e+000 -1.058742e+000  7.500000e+000
      vertex  1.333900e+000 -6.547295e-001  7.127003e+000
    endloop
  endfacet
  facet normal  5.173957e-001  4.819765e-001  7.071071e-001
    outer loop
      vertex  1.333900e+000 -6.547295e-001  7.127003e+000
      vertex  1.383596e+000 -5.217517e-001  7.000000e+000
      vertex  8.070005e-001 -6.363330e-001  7.500000e+000
    endloop
  endfacet
  facet normal  5.173953e-001  4.819775e-001  7.071066e-001
    outer loop
      vertex  1.187948e+000 -1.045274e+000  7.500000e+000
      vertex  1.333900e+000 -6.547295e-001  7.127003e+000
      vertex  8.070005e-001 -6.363330e-001  7.500000e+000
    endloop
  endfacet
  facet normal  5.173953e-001  4.819766e-001  7.071071e-001
    outer loop
      vertex  1.426829e+000 -5.681619e-001  7.000000e+000
      vertex  1.383596e+000 -5.217517e-001  7.000000e+000
      vertex  1.333900e+000 -6.547295e-001  7.127003e+000
    endloop
  endfacet
  facet normal  6.921013e-001  1.727630e-001  7.008200e-001
    outer loop
      vertex  1.929943e+000 -1.618354e+000  7.000000e+000
      vertex  1.834640e+000 -1.236565e+000  7.000000e+000
      vertex  1.419837e+000 -1.603102e+000  7.500000e+000
    endloop
  endfacet
  facet normal  6.434686e-001  3.082652e-001  7.006574e-001
    outer loop
      vertex  1.834640e+000 -1.236565e+000  7.000000e+000
      vertex  1.664628e+000 -8.816845e-001  7.000000e+000
      vertex  1.329534e+000 -1.318667e+000  7.500000e+000
    endloop
  endfacet
  facet normal  6.697448e-001  2.126303e-001  7.114986e-001
    outer loop
      vertex  1.419837e+000 -1.603102e+000  7.500000e+000
      vertex  1.834640e+000 -1.236565e+000  7.000000e+000
      vertex  1.329534e+000 -1.318667e+000  7.500000e+000
    endloop
  endfacet
  facet normal  7.095876e-001 -1.142645e-001  6.952906e-001
    outer loop
      vertex  1.946654e+000 -2.011502e+000  7.000000e+000
      vertex  1.651047e+000 -2.115387e+000  7.284613e+000
      vertex  1.884094e+000 -2.400000e+000  7.000000e+000
    endloop
  endfacet
  facet normal  7.023734e-001 -5.412869e-002  7.097476e-001
    outer loop
      vertex  1.449998e+000 -1.900000e+000  7.500000e+000
      vertex  1.651047e+000 -2.115387e+000  7.284613e+000
      vertex  1.946654e+000 -2.011502e+000  7.000000e+000
    endloop
  endfacet
  facet normal  7.125182e-001  3.028689e-002  7.009996e-001
    outer loop
      vertex  1.449998e+000 -1.900000e+000  7.500000e+000
      vertex  1.946654e+000 -2.011502e+000  7.000000e+000
      vertex  1.929943e+000 -1.618354e+000  7.000000e+000
    endloop
  endfacet
  facet normal  6.993112e-001  7.104050e-002  7.112785e-001
    outer loop
      vertex  1.449998e+000 -1.900000e+000  7.500000e+000
      vertex  1.929943e+000 -1.618354e+000  7.000000e+000
      vertex  1.419837e+000 -1.603102e+000  7.500000e+000
    endloop
  endfacet
  facet normal  5.648245e-001  4.284051e-001  7.052960e-001
    outer loop
      vertex  1.426829e+000 -5.681619e-001  7.000000e+000
      vertex  1.333900e+000 -6.547295e-001  7.127003e+000
      vertex  1.664628e+000 -8.816845e-001  7.000000e+000
    endloop
  endfacet
  facet normal  5.668812e-001  4.343830e-001  6.999694e-001
    outer loop
      vertex  1.664628e+000 -8.816845e-001  7.000000e+000
      vertex  1.333900e+000 -6.547295e-001  7.127003e+000
      vertex  1.182915e+000 -1.058742e+000  7.500000e+000
    endloop
  endfacet
  facet normal  6.118563e-001  3.451376e-001  7.116965e-001
    outer loop
      vertex  1.664628e+000 -8.816845e-001  7.000000e+000
      vertex  1.182915e+000 -1.058742e+000  7.500000e+000
      vertex  1.329534e+000 -1.318667e+000  7.500000e+000
    endloop
  endfacet
  facet normal -6.414564e-001  3.073012e-001  7.029222e-001
    outer loop
      vertex -1.664628e+000 -8.816845e-001  7.000000e+000
      vertex -1.834640e+000 -1.236565e+000  7.000000e+000
      vertex -1.350989e+000 -1.370702e+000  7.500000e+000
    endloop
  endfacet
  facet normal -6.909835e-001  1.724840e-001  7.019907e-001
    outer loop
      vertex -1.834640e+000 -1.236565e+000  7.000000e+000
      vertex -1.929943e+000 -1.618354e+000  7.000000e+000
      vertex -1.425910e+000 -1.634106e+000  7.500000e+000
    endloop
  endfacet
  facet normal -6.788417e-001  1.930838e-001  7.084437e-001
    outer loop
      vertex -1.350989e+000 -1.370702e+000  7.500000e+000
      vertex -1.834640e+000 -1.236565e+000  7.000000e+000
      vertex -1.425910e+000 -1.634106e+000  7.500000e+000
    endloop
  endfacet
  facet normal -7.095872e-001 -1.142645e-001  6.952910e-001
    outer loop
      vertex -1.651047e+000 -2.115387e+000  7.284613e+000
      vertex -1.946654e+000 -2.011502e+000  7.000000e+000
      vertex -1.884094e+000 -2.400000e+000  7.000000e+000
    endloop
  endfacet
  facet normal -7.018341e-001  6.357811e-002  7.094976e-001
    outer loop
      vertex -1.449997e+000 -1.900000e+000  7.500000e+000
      vertex -1.425910e+000 -1.634106e+000  7.500000e+000
      vertex -1.929943e+000 -1.618354e+000  7.000000e+000
    endloop
  endfacet
  facet normal -7.125177e-001  3.028687e-002  7.010002e-001
    outer loop
      vertex -1.449997e+000 -1.900000e+000  7.500000e+000
      vertex -1.929943e+000 -1.618354e+000  7.000000e+000
      vertex -1.946654e+000 -2.011502e+000  7.000000e+000
    endloop
  endfacet
  facet normal -7.023730e-001 -5.412845e-002  7.097481e-001
    outer loop
      vertex -1.449997e+000 -1.900000e+000  7.500000e+000
      vertex -1.946654e+000 -2.011502e+000  7.000000e+000
      vertex -1.651047e+000 -2.115387e+000  7.284613e+000
    endloop
  endfacet
  facet normal -5.618519e-001  4.319281e-001  7.055215e-001
    outer loop
      vertex -1.060976e+000 -9.089714e-001  7.500000e+000
      vertex -1.426829e+000 -5.681619e-001  7.000000e+000
      vertex -1.227881e+000 -1.126082e+000  7.500000e+000
    endloop
  endfacet
  facet normal -5.658303e-001  4.291680e-001  7.040247e-001
    outer loop
      vertex -1.227881e+000 -1.126082e+000  7.500000e+000
      vertex -1.426829e+000 -5.681619e-001  7.000000e+000
      vertex -1.664628e+000 -8.816845e-001  7.000000e+000
    endloop
  endfacet
  facet normal -6.316316e-001  3.178777e-001  7.071034e-001
    outer loop
      vertex -1.227881e+000 -1.126082e+000  7.500000e+000
      vertex -1.664628e+000 -8.816845e-001  7.000000e+000
      vertex -1.350989e+000 -1.370702e+000  7.500000e+000
    endloop
  endfacet
  facet normal  0.000000e+000 -7.071066e-001  7.071068e-001
    outer loop
      vertex -4.708353e-010 -2.400000e+000  7.000000e+000
      vertex -4.708376e-010 -1.900000e+000  7.500000e+000
      vertex -1.884094e+000 -2.400000e+000  7.000000e+000
    endloop
  endfacet
  facet normal  0.000000e+000 -7.071066e-001  7.071068e-001
    outer loop
      vertex -1.884094e+000 -2.400000e+000  7.000000e+000
      vertex -4.708376e-010 -1.900000e+000  7.500000e+000
      vertex -1.449997e+000 -1.900000e+000  7.500000e+000
    endloop
  endfacet
  facet normal -8.582811e-006 -7.071029e-001  7.071106e-001
    outer loop
      vertex -1.884094e+000 -2.400000e+000  7.000000e+000
      vertex -1.449997e+000 -1.900000e+000  7.500000e+000
      vertex -1.651047e+000 -2.115387e+000  7.284613e+000
    endloop
  endfacet
  facet normal  0.000000e+000 -7.071067e-001  7.071069e-001
    outer loop
      vertex -4.708376e-010 -1.900000e+000  7.500000e+000
      vertex -4.708353e-010 -2.400000e+000  7.000000e+000
      vertex  1.449998e+000 -1.900000e+000  7.500000e+000
    endloop
  endfacet
  facet normal  0.000000e+000 -7.071066e-001  7.071068e-001
    outer loop
      vertex  1.449998e+000 -1.900000e+000  7.500000e+000
      vertex -4.708353e-010 -2.400000e+000  7.000000e+000
      vertex  1.884094e+000 -2.400000e+000  7.000000e+000
    endloop
  endfacet
  facet normal  8.582841e-006 -7.071030e-001  7.071106e-001
    outer loop
      vertex  1.449998e+000 -1.900000e+000  7.500000e+000
      vertex  1.884094e+000 -2.400000e+000  7.000000e+000
      vertex  1.651047e+000 -2.115387e+000  7.284613e+000
    endloop
  endfacet
  facet normal -6.623642e-001 -2.475350e-001  7.071068e-001
    outer loop
      vertex -1.383596e+000 -5.217517e-001  7.000000e+000
      vertex -8.070005e-001 -6.363330e-001  7.500000e+000
      vertex -1.578582e+000  0.000000e+000  7.000000e+000
    endloop
  endfacet
  facet normal -6.623642e-001 -2.475351e-001  7.071067e-001
    outer loop
      vertex -1.578582e+000  0.000000e+000  7.000000e+000
      vertex -8.070005e-001 -6.363330e-001  7.500000e+000
      vertex -1.231665e+000  5.000000e-001  7.500000e+000
    endloop
  endfacet
  facet normal -5.173956e-001  4.819769e-001  7.071068e-001
    outer loop
      vertex -1.426829e+000 -5.681619e-001  7.000000e+000
      vertex -1.060976e+000 -9.089714e-001  7.500000e+000
      vertex -1.383596e+000 -5.217517e-001  7.000000e+000
    endloop
  endfacet
  facet normal -5.173953e-001  4.819773e-001  7.071068e-001
    outer loop
      vertex -1.383596e+000 -5.217517e-001  7.000000e+000
      vertex -1.060976e+000 -9.089714e-001  7.500000e+000
      vertex -8.070005e-001 -6.363330e-001  7.500000e+000
    endloop
  endfacet
endsolid CATIA STL
